<svg xmlns="http://www.w3.org/2000/svg" width="414" height="100" viewBox="0 0 414 100">
  <title>caesars</title>
  <g>
    <path d="M234.76,48.6l-1.06-.24L230.13,56H215.75V25.24h14.38l3.57,7.65,1.06-.24V23.54h-29v1.7h4.42V56h-4.42v1.7h29V48.6ZM225.25,48l1.05-.25V34.23L225.25,34l-3.48,7.11,3.48,7ZM178.17,23.4l-.37.15h0l.37-.18-.28-.75-.92.8-2.39,1.65L162.13,56H157.7v1.7h10.61V56H164l4.21-10.52h12.43l4,10.52h-4.09v1.7h14.32V56h-4.27Zm-9.35,20.42,5.73-14.24,5.38,14.24ZM306,57.71h14.31V56h-4.18L303.83,23.4l-.37.15h0l.37-.19-.28-.74-.92.8-2.39,1.65L287.81,56h-4.43v1.7H294V56h-4.36l4.21-10.52h12.42l4,10.52h-4.12ZM294.41,43.82l5.72-14.24,5.39,14.24ZM350,42.23l-2.39-.63a21.08,21.08,0,0,0,6.14-2.34c3.14-1.83,4.87-4.23,4.87-6.79,0-6.19-6.15-9.55-11.92-9.55H330.32v1.7h4.41V56h-4.41v1.65h14.32V56h-4.42V42.05h3.56l11.53,15.66h8.06V56h-3Zm-9.81-17.56h4.39c7.29.27,8.08,6.12,8.08,8.61,0,6-5.92,7-12.49,7ZM269.55,40.09s-3.94-2.25-5.24-3l-1.63-.87a49.36,49.36,0,0,1-4.78-2.76,4.06,4.06,0,0,1-1.74-3.25,4.49,4.49,0,0,1,1.14-3.43c1.28-1.5,4.19-2.06,5.8-2a8.77,8.77,0,0,1,7.25,3.82l2.17,5.32h1.27V25.51l-.12-.15a6.65,6.65,0,0,0-2.49-1.51,18.57,18.57,0,0,0-9-.88,17.35,17.35,0,0,0-7.34,3,7.42,7.42,0,0,0-3.19,5.66,6.48,6.48,0,0,0,.77,3.76,7.13,7.13,0,0,0,2.81,3c1.32.84,3.23,1.87,6.12,3.4l.83.44c1.91,1,3.12,1.65,4.15,2.28a9.83,9.83,0,0,1,2.6,2.17,5.75,5.75,0,0,1,1.27,3,4.87,4.87,0,0,1-1.5,4.27A7.87,7.87,0,0,1,263,55.86a11.91,11.91,0,0,1-8.42-3.92l-2.06-5.31h-1.36V55l.16.17a8.48,8.48,0,0,0,2.41,1.5,16,16,0,0,0,6.87,1.64,14.24,14.24,0,0,0,2.61-.24,19.22,19.22,0,0,0,8-3.47,8.81,8.81,0,0,0,3.64-7.52A8.53,8.53,0,0,0,269.55,40.09ZM398.34,47.2a8.38,8.38,0,0,0-5.19-7.11l-5.25-3-1.62-.87a49.36,49.36,0,0,1-4.78-2.76,4.07,4.07,0,0,1-1.74-3.25,4.49,4.49,0,0,1,1.14-3.43c1.31-1.5,4.21-2.06,5.8-2A8.76,8.76,0,0,1,394,28.55l2.15,5.32h1.24V25.51l-.12-.15a6.69,6.69,0,0,0-2.5-1.51,18.7,18.7,0,0,0-9-.88,17.39,17.39,0,0,0-7.35,3,7.51,7.51,0,0,0-3.19,5.66,6.56,6.56,0,0,0,.77,3.76,7.13,7.13,0,0,0,2.81,3c1.32.84,3.22,1.85,6.1,3.37l.89.47c1.86,1,3.11,1.64,4.13,2.27a9.49,9.49,0,0,1,2.6,2.16,5.69,5.69,0,0,1,1.28,3,4.88,4.88,0,0,1-1.5,4.27,7.93,7.93,0,0,1-5.67,1.91,11.92,11.92,0,0,1-8.42-3.93l-2-5.3h-1.37V55l.16.16a8.62,8.62,0,0,0,2.41,1.5,16.15,16.15,0,0,0,6.89,1.64,13.49,13.49,0,0,0,2.61-.24,19.2,19.2,0,0,0,8-3.47,8.75,8.75,0,0,0,3.6-7.52ZM147.07,55V46.63L146,46.38l-4,8a12,12,0,0,1-6.93,2.24c-9.4,0-13.61-8-13.61-16,0-10.19,5-16,13.61-16A12,12,0,0,1,142.45,27L146,34.15l1.05-.25V25.63l-.39-.21a22.7,22.7,0,0,0-10.82-2.68c-11.8,0-20.4,7.52-20.4,17.82,0,11.45,7.26,17.78,20.44,17.78a21.86,21.86,0,0,0,10.9-3.18Zm-28,22.79h6.12V76H119.1V72.84h6.83V71.05h-8.74V82.89H126V81.11h-6.91v-3.3Zm28.67,1.61-6.58-8.37h-1.67V82.89h1.86V74.31l6.77,8.58h1.5V71.05h-1.88Zm15.28-6.57h3.76v10h2v-10h3.76v-1.8h-9.44v1.8Zm24.73,5h6.12V76h-6.12V72.84h6.84V71.05H186V82.89h8.81V81.11h-6.91V77.83Zm30.07-3.11a3.38,3.38,0,0,0-1-2.43,4.77,4.77,0,0,0-3.42-1.21h-5.14V82.91h1.91V78.55H213l3.25,4.36h1.72l.25-.51L215,78.2a3.5,3.5,0,0,0,2.81-3.5Zm-1.91.08c0,1.2-1,2-2.54,2h-3.13V72.85h3.14c1.6,0,2.53.69,2.53,1.93Zm14.75-1.93h3.76v10h1.91v-10h3.76v-1.8h-9.45v1.8ZM256.34,71l-5.4,11.92H253l1.32-3H260l1.3,3h2.06L258,71Zm2.82,7.17h-4.11l2.07-4.6Zm16.09-7.09h1.91V82.89h-1.91Zm23.36,8.37-6.51-8.37h-1.65V82.89h1.87V74.31l6.76,8.58h1.5V71.05h-1.86v8.37Zm22.66-2.52L317.36,71h-1.77V82.88h1.86V74.54l3.6,5.27h.4l3.6-5.27v8.35h1.89V71.05h-1.76l-3.91,5.86Zm22.07.91h6.12V76h-6.12V72.84h6.84V71.05h-8.73V82.89h8.81V81.11h-6.92v-3.3Zm28.73,1.61-6.58-8.37h-1.66V82.89h1.94V74.31l6.77,8.58H374V71.05h-2v8.37Zm15.26-6.57h3.76v10H393v-10h3.76v-1.8h-9.44v1.8Zm18.48,4.32a2.86,2.86,0,0,1,1.4.36,2.71,2.71,0,0,1,1,1,2.86,2.86,0,0,1,0,2.83,2.73,2.73,0,0,1-1,1,2.82,2.82,0,0,1-2.81,0,2.6,2.6,0,0,1-1-1A2.75,2.75,0,0,1,403,80a2.92,2.92,0,0,1,.38-1.32,2.6,2.6,0,0,1,1-1,2.83,2.83,0,0,1,1.4-.36Zm0,.55a2.27,2.27,0,0,0-1.11.29,2.06,2.06,0,0,0-.84.84,2.25,2.25,0,0,0,0,2.27,2,2,0,0,0,.82.83,2.23,2.23,0,0,0,2.26,0,2,2,0,0,0,.82-.83,2.23,2.23,0,0,0,.31-1.13,2.34,2.34,0,0,0-1.16-2,2.3,2.3,0,0,0-1.11-.29Zm-1.28,3.78v-3H406a1.21,1.21,0,0,1,.46.12.69.69,0,0,1,.27.29.81.81,0,0,1-.09,1,1,1,0,0,1-.58.29,1,1,0,0,1,.21.1l.21.23.22.38.35.6h-.72l-.26-.48a2.09,2.09,0,0,0-.42-.64.69.69,0,0,0-.42-.12h-.17v1.24Zm.63-1.7h.24a3.42,3.42,0,0,0,.64,0,.43.43,0,0,0,.19-.14.35.35,0,0,0,.08-.22.45.45,0,0,0,0-.23.39.39,0,0,0-.21-.13,2.29,2.29,0,0,0-.64,0h-.24Z" style="fill: #9d1314"/>
    <path d="M44.67.5h1.38a24.11,24.11,0,0,1,4.13.63h0l2.46.62c2.47.63,4.91,1.32,7.32,2.11h0l1.2.46a27.72,27.72,0,0,1,7.3,5h0l1.76,1.53c1.76,1.52,3.52,3,5.28,4.63h0l1.25,1.29c1.21,1.32,2.32,2.74,3.52,4.15h0L82,23.2c1.18,1.53,2.32,3.06,3.43,4.64h0l.85,1.25a31.64,31.64,0,0,1,4.41,9.52h0l.51,1.76a66.54,66.54,0,0,1,1.92,7.34h0l.23,1.48a33.45,33.45,0,0,1,.12,11.89h0l-.31,1.76a55.76,55.76,0,0,1-1.32,6.79h0l-.57,1.76a41.19,41.19,0,0,1-3.85,8.17h0l-.86,1.37a35.32,35.32,0,0,1-5,6.27h0l-1.26,1.17a34.27,34.27,0,0,1-10.19,6.39h0l-1.76.71A57,57,0,0,1,61.2,98h0l-1.61.39a38.45,38.45,0,0,1-14.65.72h0l-2-.41A58.71,58.71,0,0,1,25.56,92h0L24,91.1a42.75,42.75,0,0,1-9.59-8.41h0l-.93-1c-1.31-1.23-2.82-2.28-4.16-3.52h0l-.89-.86A17.92,17.92,0,0,1,4,70.13H4l-.9-2.92c-.58-2-1.11-4-1.6-6h0L1.32,60.1C1.16,59,1.12,57.86,1,56.75H1V55.49A25,25,0,0,1,3.32,47.2h0l1-2.46c.32-.83.64-1.68.94-2.52l1.76-5,.79-2.31c1-3.07,2-6.21,3.27-9.18h0l.62-1.36a30.89,30.89,0,0,1,5-7.35h0l1.63-1.76c1.62-1.76,3.22-3.66,5-5.28h0l1.25-1.14A34.41,34.41,0,0,1,36.21,2h0l1.35-.42a25.33,25.33,0,0,1,6.92-1h.14ZM45.38,4A23.7,23.7,0,0,0,27.9,8.93h0l-1.39,1a58.46,58.46,0,0,0-7.33,7.26h0l-1.11,1.32A52.24,52.24,0,0,0,9.69,35.08h0L8.58,38.47c-.72,2.27-1.44,4.54-2.2,6.79h0l-1,2.87A26.4,26.4,0,0,0,4,54,15.89,15.89,0,0,0,6.7,64.57h0V58.65h0V57.16a30,30,0,0,1,.93-8.8h0L8,47a29.92,29.92,0,0,1,1.38-4h0l1-2.29c1-2.29,2.13-4.54,3.36-6.7h0l.91-1.53a51,51,0,0,1,6.69-8.33h0l.91-.93a23.41,23.41,0,0,1,7.25-5.42h0L31.28,17q2.78-1,5.63-1.76h0L38.36,15A32,32,0,0,1,55.49,16.2h0L60.77,18h0l5.28,1.75,1.62.57c1.09.37,2.17.75,3.22,1.19h0l1.27.6A35.63,35.63,0,0,1,79.85,28h0l.54.55A8.42,8.42,0,0,1,82,31.17h0L83,34c.6,1.88,1.14,3.8,1.76,5.68h0l.4,1.41a28.08,28.08,0,0,1,.44,10h0L85.34,53a42.63,42.63,0,0,1-4.19,12.43h0l-.81,1.53A44.52,44.52,0,0,1,66.69,81.79h0l-1.62,1.09a44.18,44.18,0,0,1-14.22,6h0l-1.76.37a46.13,46.13,0,0,1-14.41.26h0l-1.76-.21h0l-1.76-.19v.17h0v.18l1,.33a15,15,0,0,0,2.08.59h0l5.4.91h0l5.42.9,1.76.24a37.72,37.72,0,0,0,13.25-1.14h0l1.76-.46A41,41,0,0,0,72,86.77h0L73.2,86a28.85,28.85,0,0,0,8.48-7.73h0l.91-1.39a38.22,38.22,0,0,0,4.72-12.17h0l.31-1.64a42.29,42.29,0,0,0,.27-11.46h0l-.28-2.21c-.32-2.22-.69-4.44-.79-6.67h0l-.09-1.39A23.17,23.17,0,0,0,82.82,30h0l-.91-1.32c-3.31-4.87-6.44-9.91-11.35-13.41h0L67.9,13.4c-2.68-1.76-5.4-3.63-8.2-5.28h0l-1.32-.7A45.8,45.8,0,0,0,46.93,4.11h0ZM46.63,18.4a47.3,47.3,0,0,0-6.3,0h0l-1.76.1a44.46,44.46,0,0,0-5.28.76h0l-1.06.24A16.22,16.22,0,0,0,25.56,23h0l-1.51,1.39A51.58,51.58,0,0,0,13.16,39.12h0l-.72,1.53A38,38,0,0,0,8.81,56.72h0v1.76A32.1,32.1,0,0,0,11,69.69h0l.3.7a7.42,7.42,0,0,0,3.52,3.8h0l.85.49c.54.37,1.07.8,1.63,1.15h0l1.5.93a38.21,38.21,0,0,0,6.07,3.52,34.41,34.41,0,0,0,12.93,3h2.15a72.34,72.34,0,0,0,8.32-.55h0l1.3-.25c1.76-.42,3.44-1.17,5.14-1.75h0l1.57-.57A34.57,34.57,0,0,0,67.53,73.4h0l1.16-1.11A37.3,37.3,0,0,0,80.36,49h0l.09-.95c.31-3.52.42-7.16-1.55-10.42h0l-.9-1.4c-.63-.92-1.3-1.76-2-2.68h0l-.83-1A23.87,23.87,0,0,0,67,26.77h0l-4.47-2c-3-1.37-6-2.76-9-4.08h0l-1.07-.46a17.57,17.57,0,0,0-4.42-1.37h0Zm-6.83,9,.17.37a2.91,2.91,0,0,0,1.55,1.42h0l.09-.12c.11-.19.18-.4.46-.21h0l.51.23c1.37.44,2.66-.44,4-.55h.51a10,10,0,0,1,2.92.41h0a13.1,13.1,0,0,1,5.09,2.36h0a19.23,19.23,0,0,1,4.62,4h0l.41.6c1,1.76.38,2.58,1.23,3.76h0l.76,1.16.1.64a5.28,5.28,0,0,1-1.56,5.08h0l.86-.49v.6a6.56,6.56,0,0,1-.41,2.67h.28a2.9,2.9,0,0,1,.57-.12h0l-.23.33c-.46.95.23,2.24-1,2.75h-.25a.84.84,0,0,1-.68-.27h0l-.25-.49c-.51-1.51,1-3.15-.25-4.56h0l-.16.25a8.89,8.89,0,0,1-.26.88h0l-.12.26a.93.93,0,0,1-.34.44h-.1a.18.18,0,0,1-.13-.12h0l.2-.67a5.64,5.64,0,0,0-.95-4.45h0v-.26a1,1,0,0,0-.21-.78h0l-.36.41a4.79,4.79,0,0,0-.63,2.51H56v-.56a4.93,4.93,0,0,0-1.45-3h0l-.35-.3c-.74-.58-1.6-1.14-1.6-2.15h0v-.8h0l-.19.28a2.27,2.27,0,0,0-.51.75h0l-.14.41a3.11,3.11,0,0,0,.12,1.76h0l-.35-.35a5,5,0,0,1-.85-3h0l-.19-.63a4.69,4.69,0,0,0-1.58-2.19h0l-.18.11c-.16.19,0,.6-.21.83h0l-.12.49A3.3,3.3,0,0,0,49,39.46h0v.14h-.09l-.35-.48A4.31,4.31,0,0,1,48,36.31h0l-.37-.39a5.18,5.18,0,0,0-.87-.6h0v-.58a5.52,5.52,0,0,0-2.53-3.52h0l-.35-.45c-.21-.32-.37-.66-.6-1h0l-.19.09a1.5,1.5,0,0,0-.23.33h0l-.09.23a.89.89,0,0,1-.28.67h0l-.2-.5c-.51-.88-1.75-1.19-2.21-2.14h-.16c-.11,0-.11.3-.21.4h0l-.11.53a4.3,4.3,0,0,0,.72,2.39h-.1a.24.24,0,0,1-.23,0h0l-.11-.1a.27.27,0,0,0-.33-.21h0v.4a2.47,2.47,0,0,0,1.23,2h0l.42.23c1,.49,2.27.75,2.73,2h-.1l-.37-.39a3.63,3.63,0,0,0-2.31-1h0l-.1.08.33.48c.35.69.39,1.51,1,2.09h0l.53.37a6.68,6.68,0,0,0,3.8.72h0v.13h0v.14l-.12.14H45.31a1.72,1.72,0,0,0-.64,0h0l.34.46a4,4,0,0,0,3.83,1.53h.27a1,1,0,0,1,.79,0h0V41c0,.14-.19.2-.34.18h-.47a3.16,3.16,0,0,0-2.46,1h0l.08.12h.57a4.76,4.76,0,0,1,2.81,1.2h0l.5.23c1.21.38,2.67-.22,3.62.82h0l-.47-.12a4.35,4.35,0,0,0-2.15,0h0a.24.24,0,0,0,0,.12h0l.26.35c.58.87,1.09,1.94,2.22,2.15h.49c1.32,0,2.73.3,3.2,1.76h0v.09h-.19c-.16-.12-.23-.35-.42-.42h0l-.35-.29A2.77,2.77,0,0,0,55,47.76h0l-.09.11.39.21a2.62,2.62,0,0,1,1.26,2.2h0v.46a3,3,0,0,0,1.76,2.18h0l.28.09a1.4,1.4,0,0,0,1.2,0h0v-.16a1.38,1.38,0,0,0-.26-.23h.35a1.87,1.87,0,0,0,1.76-.46h0l-.11.34a2,2,0,0,1-1.07.86h0v.42a2.38,2.38,0,0,1-.74,1.9h0l-.39.23H59a.38.38,0,0,1-.15,0h0l-.22.18c-.56.31-1.49.1-1.46.93h0l.13.1a.39.39,0,0,0,.3,0h0l-.18.36c-.28.38-.72.47-1.11.86h0l-.14.14a2.2,2.2,0,0,0-.44,1.07h0l-.1.81c-.16,3,2.69,4.19,3.06,7.29h0v.26a1,1,0,0,1-.48.56h-.51a5.79,5.79,0,0,1-1,0h-1l-1.37.09a21,21,0,0,0-9.7,3.26h0l-.91.49a13.77,13.77,0,0,1-5,1.27h-.19a.57.57,0,0,1-.3-.29h0l.12-.61A7.44,7.44,0,0,0,38.76,69h0l-.19-.72a15.4,15.4,0,0,1-.42-3.52h0l-.09-.4A3.2,3.2,0,0,0,36.3,62.6h0l-.78-.25a21.36,21.36,0,0,0-3.29-.46h0L32,61.75a1.74,1.74,0,0,1-.95-.88h0l-.1-.61a7,7,0,0,1,.31-2.45h0l-.1-.25c-.16-.23-.43-.4-.41-.72h0v-.28c.13-.44.71-.76.39-1.2h0l-.86-.89.08-.3c.16-.39.39-.74.18-1.2h0l-.26-.18a3,3,0,0,0-1.32-.15h-.39a2.17,2.17,0,0,1-1.09-.23h0v-.34A3.47,3.47,0,0,1,28,50.52h0l.5-.51c1-1.26.84-3,1.76-4.25h0l.37-.46A4.54,4.54,0,0,0,31.46,42h0l.21-.64a7.12,7.12,0,0,0,1.11-2.46h0l.1-.81a11.34,11.34,0,0,1,1.57-3.6h0V34A2.12,2.12,0,0,1,35,32.35h0l.82-.67v.26c-.1.39-.24.88,0,1.16H36a.2.2,0,0,0,.22-.12h0l.15-.46a5.83,5.83,0,0,1,1-1.9h0v.22a1.11,1.11,0,0,0,.32.91h0l.21.18a.88.88,0,0,0,.77.14h0v-.18c0-.19-.38-.33-.4-.56h0L38.07,31a1.67,1.67,0,0,1,.3-1.35h0l.11-.13a.39.39,0,0,1,.26,0h.11c.1,0,.17,0,.23-.16h0v-.54a2.9,2.9,0,0,1,1-1.76h.08Z" style="fill: #9d1314"/>
  </g>
</svg>
