<?xml version="1.0" encoding="utf-8"?>
<!-- Generator: Adobe Illustrator 24.1.2, SVG Export Plug-In . SVG Version: 6.00 Build 0)  -->
<svg version="1.1" id="Layer_1" xmlns="http://www.w3.org/2000/svg" xmlns:xlink="http://www.w3.org/1999/xlink" x="0px" y="0px"
	 viewBox="0 0 214.9 48.7" style="enable-background:new 0 0 214.9 48.7;" xml:space="preserve">
<style type="text/css">
	.st0{fill-rule:evenodd;clip-rule:evenodd;fill:#9D1314;}
</style>
<g>
	<path class="st0" d="M34.3,43.9l3.4-5.9c0.5-0.8,1.4-1.3,2.4-1.4h3.4c1-0.1,1.8-0.6,2.4-1.4l2.4-4.3c0.4-0.9,0.4-1.9,0-2.7
		l-2.4-4.2c-0.5-0.8-1.4-1.3-2.4-1.4H32.6c-1,0-1.8-0.6-2.4-1.4l-3.4-5.9h19.2c1.9,0.1,3.7,1.1,4.8,2.7l4.7,8.1
		c0.9,1.7,0.9,3.8,0,5.5l-5.4,9.3c-1.1,1.6-2.8,2.6-4.7,2.7L34.3,43.9z"/>
	<path class="st0" d="M48,13.4h-6.8c-1-0.1-1.8-0.6-2.4-1.4l-1.7-2.9c-0.5-0.8-1.4-1.3-2.4-1.4h-4.9c-1,0-1.8,0.6-2.4,1.4l-2.4,4.2
		c-0.4,0.9-0.4,1.9,0,2.7l5.4,9.4c0.4,0.9,0.4,1.9,0,2.7L27.1,34l-9.6-16.6c-0.9-1.7-0.9-3.8,0-5.5l4.7-8.1c1.1-1.6,2.8-2.6,4.8-2.7
		h10.8c1.9,0.1,3.7,1.1,4.7,2.7L48,13.4z"/>
	<path class="st0" d="M14.8,16.8l3.4,5.9c0.4,0.9,0.4,1.9,0,2.7l-1.7,2.9c-0.4,0.9-0.4,1.9,0,2.7l2.4,4.2c0.5,0.8,1.4,1.3,2.4,1.4
		h4.9c1,0,1.8-0.6,2.4-1.4l5.4-9.4c0.5-0.8,1.4-1.3,2.4-1.4h6.8l-9.6,16.6c-1.1,1.6-2.8,2.6-4.7,2.7h-9.4c-1.9-0.1-3.7-1.1-4.7-2.7
		l-5.4-9.3c-0.9-1.7-0.9-3.8,0-5.5C9.2,26.3,14.8,16.8,14.8,16.8z M79.4,19.9c-1.8,0.5-3.7,0.8-5.6,0.8c-5,0-10.9-2.5-10.9-9.7
		c0-6.6,4.6-9.9,10.8-9.9c1.9,0.1,3.8,0.4,5.6,1L79,6.2c-1.5-0.9-3.2-1.3-5-1.3c-3.6,0-5.9,2.6-5.9,6.1c0,3.7,2.6,6,6.3,6
		c1.6,0,3.2-0.4,4.7-1L79.4,19.9L79.4,19.9z M84.6,15.9c0-1.4,1.3-1.9,3-1.9c0.7,0,1.4,0,2.1,0.1c0.1,1.7-1.3,3.2-3,3.3
		C85.4,17.4,84.6,16.8,84.6,15.9L84.6,15.9z M94.4,20.4c-0.2-1.1-0.3-2.2-0.3-3.4v-5.3c0-4.3-3.1-5.8-6.7-5.8c-1.9,0-3.8,0.3-5.6,1
		l0.1,3.3c1.4-0.7,2.9-1.1,4.5-1.1c1.8,0,3.2,0.5,3.2,2.4c-0.7-0.1-1.5-0.2-2.3-0.2c-2.6,0-7.3,0.5-7.3,4.8c0,3.1,2.5,4.4,5.3,4.4
		c1.9,0.1,3.6-0.9,4.5-2.5h0.1c0,0.7,0.1,1.5,0.1,2.2L94.4,20.4z M95.9,6.2h4.9v14.1h-4.9V6.2z M100.8,4.4h-4.9V0.9h4.9V4.4z
		 M106.6,13.1l-4.4-6.9h5.8l2,4.2l2.2-4.2h5.3l-4.4,6.9l4.7,7.2H112l-2.4-4.4l-2.3,4.4h-5.5L106.6,13.1z"/>
	<path class="st0" d="M122.2,15.9c0-1.4,1.3-1.9,2.9-1.9c0.7,0,1.4,0,2.1,0.1c0.1,1.7-1.3,3.2-3,3.3
		C123.1,17.4,122.2,16.8,122.2,15.9z M132,20.3c-0.2-1.1-0.3-2.2-0.3-3.3v-5.3c0-4.3-3.1-5.8-6.7-5.8c-1.9,0-3.8,0.3-5.6,1l0.1,3.3
		c1.4-0.7,3-1.1,4.5-1.1c1.8,0,3.2,0.5,3.2,2.4c-0.8-0.1-1.5-0.2-2.3-0.2c-2.6,0-7.3,0.5-7.3,4.8c0,3.1,2.5,4.4,5.3,4.4
		c1.9,0.1,3.6-0.9,4.5-2.5h0.1c0,0.7,0.1,1.5,0.1,2.2L132,20.3z M156.7,19.8c-2.4,0.6-4.8,0.9-7.3,0.9c-5,0-10.9-2.5-10.9-9.7
		s5-9.9,12-9.9c1.9,0,3.9,0.3,5.7,0.8L155.8,6c-1.4-0.8-3-1.2-4.6-1.2c-4.1,0-7.4,1.7-7.4,6.1c0,3.7,2.6,6,6.3,6
		c0.6,0,1.2-0.1,1.8-0.3v-3.7h-3V9.3h7.8L156.7,19.8L156.7,19.8z M163.2,11.9c0.1-1.6,1-2.9,2.7-2.9c2,0,2.7,1.3,2.7,2.9H163.2z
		 M173,14.7v-0.9c0-4.2-1.9-7.9-7.1-7.9c-4.4,0-7.6,2.7-7.6,7.4s3.6,7.4,8.2,7.4c1.8,0,3.5-0.3,5.2-0.9v-3.4
		c-1.3,0.7-2.8,1.1-4.3,1.1c-2.4,0-3.9-0.8-4.1-2.7L173,14.7z M184.6,10.1c-0.5-0.1-1.1-0.2-1.6-0.2c-2.3,0-3.6,1.6-3.6,4.4v6h-4.9
		V6.2h4.4v2.6h0.1c0.9-1.8,2.1-2.9,4.2-2.9c0.6,0,1.1,0.1,1.6,0.2L184.6,10.1L184.6,10.1z M189.5,15.8c0-1.4,1.3-1.9,2.9-1.9
		c0.7,0,1.4,0,2.1,0.1c0.1,1.7-1.3,3.2-3,3.3C190.4,17.4,189.5,16.8,189.5,15.8L189.5,15.8z M199.3,20.3c-0.2-1.1-0.3-2.2-0.3-3.3
		v-5.3c0-4.3-3.1-5.8-6.7-5.8c-1.9,0-3.8,0.3-5.6,1l0.1,3.3c1.4-0.7,2.9-1.1,4.5-1.1c1.8,0,3.2,0.5,3.2,2.4
		c-0.7-0.1-1.5-0.2-2.3-0.2c-2.6,0-7.3,0.5-7.3,4.8c0,3.1,2.5,4.4,5.3,4.4c1.9,0.1,3.6-0.9,4.5-2.5h0.1c0,0.7,0.1,1.5,0.1,2.2
		L199.3,20.3z M201.4,0h4.9v20.3h-4.9V0z M66.7,37.7c0-1.6,0.9-3,2.5-3s2.6,1.3,2.6,3.2c0.2,1.6-1,2.9-2.5,3.1c0,0,0,0,0,0
		C67.7,40.9,66.7,39.6,66.7,37.7z M76,26.5h-4.2v6.9l0,0c-1-1.3-2.6-2-4.2-1.8c-3.3,0-5.2,3.1-5.2,6.1c0,3.6,1.9,6.5,5.5,6.5
		c1.7,0.1,3.4-0.9,4.2-2.4l0,0v2.2H76V26.5z M80.9,36.7c0.1-1.4,0.8-2.5,2.3-2.5c1.2-0.1,2.3,0.9,2.3,2.1c0,0.1,0,0.3,0,0.4H80.9z
		 M89.3,39v-0.8c0-3.6-1.6-6.8-6.1-6.8c-3.8,0-6.5,2.3-6.5,6.3s3,6.3,7,6.3c1.5,0,3-0.2,4.4-0.8v-3c-1.1,0.6-2.4,0.9-3.7,0.9
		c-2,0-3.3-0.7-3.6-2.3L89.3,39z M99.3,30.8h1.7c3.2,0,5,1.7,5,4.9s-1.8,4.9-5,4.9h-1.6L99.3,30.8z M95,43.8h6
		c5.5,0,9.6-2.1,9.6-8.2c0-6.3-4-8-9.6-8h-5.9L95,43.8L95,43.8z M115.7,36.6c0.1-1.4,0.8-2.5,2.3-2.5c1.7,0,2.3,1.1,2.3,2.5H115.7z
		 M124.1,39v-0.8c0-3.6-1.6-6.8-6.1-6.8c-3.8,0-6.5,2.3-6.5,6.3s3,6.3,7,6.3c1.5,0,3-0.2,4.4-0.8v-3c-1.1,0.6-2.4,0.9-3.7,0.9
		c-2,0-3.3-0.7-3.6-2.3L124.1,39z M134.5,37.7c0,1.9-1,3.3-2.5,3.3c-1.6-0.1-2.7-1.5-2.6-3.1c0-1.8,1-3.2,2.6-3.2
		S134.5,36.1,134.5,37.7L134.5,37.7z M125.3,48.7h4.2v-6.5l0,0c0.8,1.3,2.3,2.1,3.8,2c3.6,0,5.5-3,5.5-6.5c0-2.9-1.8-6.1-5.2-6.1
		c-1.8-0.1-3.6,0.9-4.5,2.5h-0.1v-2.2h-3.8L125.3,48.7L125.3,48.7z M148.1,34.7c1,0.7,1.6,1.9,1.5,3.1c0,1.8-0.8,3.4-2.7,3.4
		s-2.7-1.6-2.7-3.4s0.8-3.4,2.7-3.4v-2.9c-4,0-7,2.3-7,6.3s3,6.3,7,6.3s7-2.3,7-6.3c0.1-2.6-1.5-4.9-3.9-5.8L148.1,34.7L148.1,34.7z
		 M155.1,40.5c1.2,0.5,2.6,0.8,3.9,0.8c0.9,0,1.7-0.1,1.7-1c0-2-5.9-0.6-5.9-5c0-2.8,2.7-3.9,5.1-3.9c1.4,0,2.9,0.2,4.3,0.7
		l-0.3,2.9c-1-0.5-2.1-0.8-3.3-0.8c-0.9,0-1.9,0.2-1.9,0.8c0,1.9,6.2,0.4,6.2,5c0,3.2-2.9,4-5.6,4c-1.5,0-3-0.1-4.4-0.6L155.1,40.5
		L155.1,40.5z M165.9,31.7h4.2v12.1h-4.2L165.9,31.7z M170.1,29.7h-4.2v-3h4.2L170.1,29.7z M171.1,31.7h2.5V29l4.1-1.3v4h2.9v2.9
		h-2.9v4.5c0,1.5,0.4,2.2,1.7,2.2c0.4,0,0.9-0.1,1.3-0.2l0.1,2.7c-0.9,0.1-1.7,0.2-2.6,0.2c-3.7,0-4.6-1.7-4.6-4.5v-4.9h-2.4V31.7
		L171.1,31.7z M188.3,41.2c-1.9,0-2.7-1.6-2.7-3.4s0.8-3.4,2.7-3.4s2.7,1.6,2.7,3.4S190.3,41.2,188.3,41.2L188.3,41.2z M188.3,44.1
		c4,0,7-2.3,7-6.3s-3-6.3-7-6.3s-7,2.3-7,6.3S184.4,44.1,188.3,44.1L188.3,44.1z M196.5,40.5c1.2,0.5,2.6,0.8,3.9,0.8
		c0.9,0,1.7-0.1,1.7-1c0-2-5.9-0.6-5.9-5c0-2.8,2.7-3.9,5.1-3.9c1.4,0,2.9,0.2,4.3,0.7l-0.3,2.9c-1-0.5-2.1-0.8-3.3-0.8
		c-0.9,0-1.9,0.2-1.9,0.8c0,1.9,6.2,0.4,6.2,5c0,3.2-2.9,4-5.6,4c-1.5,0-3-0.1-4.4-0.6L196.5,40.5L196.5,40.5z"/>
</g>
</svg>
