<svg id="Layer_1" data-name="Layer 1" xmlns="http://www.w3.org/2000/svg" viewBox="0 0 391 100">
  <defs>
    <style>
      .cls-1 {
        fill: #9d1314;
        fill-rule: evenodd;
      }
    </style>
  </defs>
  <title>c</title>
  <g>
    <path class="cls-1" d="M49.24,80.55l-.28.27c-4.48,4.56-9.65,7-15,7-11.13,0-19.21-8.35-19.21-19.88S22.84,48.05,34,48.05c5.34,0,10.51,2.42,15,7l.28.29,7.16-8.67-.2-.23c-6-7-13.09-10.46-21.88-10.46s-16.87,3-22.68,8.32C5.33,50.07,2,58.24,2,67.91s3.33,17.87,9.64,23.66c5.81,5.38,13.87,8.32,22.68,8.32S50.25,96.47,56.2,89.43l.2-.22-7.16-8.66ZM63.63,98.71H76.28V37H63.63Zm62.21-13.42a18.42,18.42,0,0,1-9.35,3.09c-4.08,0-5.93-2.16-5.93-7V48.64h12.89V37H110.56V17.8l-12.4,6.64V37H87.47V48.64H98.16V83.51c0,9.49,5.62,16,14,16.15a20,20,0,0,0,11.22-2.83l.13-.09,3-11.91-.74.46Zm10.47,13.42H149V37H136.31Z"/>
    <path class="cls-1" d="M156.35,26.13a61.41,61.41,0,0,0-100.53,0l-.59.84H69.78l.16-.17a49.6,49.6,0,0,1,72.28,0l.17.17h14.54l-.58-.84Z"/>
    <path class="cls-1" d="M173.13,51.64l-.17.22v32l.12.19a20.84,20.84,0,0,0,17.38,9.85c10.66,0,16.07-9,16.07-26.71,0-15.84-6-24.91-16.43-24.91-6.33,0-12,3.16-17,9.41ZM386,98.49v.22h-7.64c-.44-.88-16-33.86-16-33.86l-11.63,16.3V98.71h-7.21V17.59c.63-.36,5.51-3.16,7.21-4.12v58.9l3.95-6.13,20-28.88h7.91c-1.68,2.25-15.6,21.41-15.6,21.41s17.26,36,19.07,39.72ZM242.11,100h-3.06c-6.22-.36-17.42-3.25-17.42-19.32,0-14.27,11.78-19.34,22.82-19.34a31.61,31.61,0,0,1,15,3.51l1.2.65V56.7c0-9.77-4.77-14.71-14.2-14.71A32.38,32.38,0,0,0,230,46.48c-.48-1.09-2.15-4.78-2.61-5.82A42.64,42.64,0,0,1,247,36c14,0,20.83,6.4,20.83,19.59V98.71h-7.22V89.76l-1.4,1.55c-4.94,5.44-10.54,8.3-17.13,8.69Zm-49.62,0h-2.86c-6-.37-10.85-3-15.27-8.08L173,90.28v8.43h-7.21V17.59c.61-.36,5.51-3.17,7.21-4.13V46.29l1.39-1.53c5.32-5.87,11.2-8.73,18-8.73,13.55,0,21.32,11.28,21.32,31C213.64,86.41,205.38,99.17,192.49,100ZM228.7,80.09c0,9.18,4.76,14.22,13.39,14.22a22.28,22.28,0,0,0,18.41-9.78l.14-.22V70.86l-.41-.23c-4.61-2.63-9.32-3.7-16.26-3.7-9.55,0-15.27,4.92-15.27,13.16Zm62.71-35.43A19.16,19.16,0,0,1,307.8,36c13.61,0,20.83,8.68,20.83,25.11V98.71h-7.24v-36c0-14-4.85-20.47-15.36-20.47C296,42.23,290,49.89,290,62.7v36h-7.21V37.36H290v9.51l1.46-2.21Z"/>
  </g>
</svg>
