<svg id="Layer_1" data-name="Layer 1" xmlns="http://www.w3.org/2000/svg" viewBox="0 0 538 100">
  <defs>
    <style>
      .cls-1, .cls-2 {
        fill: #9d1314;
      }

      .cls-1 {
        fill-rule: evenodd;
      }
    </style>
  </defs>
  <title>c</title>
  <g>
    <path class="cls-1" d="M49.59,29.67l.62,21.61h-2.3c-.7-5.31-1.5-10.61-5.13-14.64s-7.69-4-12.81-4H18l-.09,7.66V62.09h5.57c6.55-.3,9.72-2.07,10-11.69V47.45h2.39v33H33.5V76.62C33.24,68,31.91,65,23.34,64.84H18V88.51l.08,8H32.8c3.89-.2,7.87-.39,11.75-4.62,5.05-5.5,5.67-12.08,6-16.6h2.56L52.43,99H0V96.66H8.22l.09-8.25V40.28L8.22,32H0V29.66H49.59Zm51.9,21.9v2.37H95.65L91,60.61,83.28,72.1l9.45,17.49,4,7.07h5.84V99H78.32V96.66h8.05L83.45,91,77.26,79.27,69.58,91.06,66,96.66h8.31V99H56.85V96.66h5.73l4.69-6.78L76,76.72,67.54,61.2l-4.25-7.26H56.85V51.57h25v2.37H73.73l3,5.89,5.13,9.82,6.54-9.73,3.71-6H85.57V51.57Z"/>
    <path class="cls-1" d="M139.32,83.79c-1.15,3.34-2.21,6.88-5.13,10.22a17.68,17.68,0,0,1-13.61,5.89c-12.29,0-20.42-10.51-20.42-24.26s7.87-25,21-25c10.52,0,16.8,7.27,16.8,13.65,0,3.44-2.3,5-4.6,5-4.15,0-4.15-3.63-4.24-5.6a20.36,20.36,0,0,0-.36-4.71,7.45,7.45,0,0,0-7.51-5.8C110.59,53.24,110,68,110,75.15c0,9.82,2.3,21.7,12.64,21.7a13,13,0,0,0,5.13-1c6.37-2.74,8.31-8.93,9.46-12.86l2.12.78Zm13.09-14.34c.44-5.89,1.15-16.4,9.64-16.4,2.56,0,5.83,1,7.69,5.5,1.32,3.34,1.42,7.17,1.5,10.9Zm26.87,15c-1,2.74-2.91,8.15-8,11.09a13.35,13.35,0,0,1-5.92,1.48c-2.65,0-8.49-.79-11.14-8.35-1.86-5-1.86-11-1.86-16.51h29.44c-.26-4.42-.71-10.51-5.48-15.91a17.8,17.8,0,0,0-13.43-6,18.89,18.89,0,0,0-13.71,5.9,24.52,24.52,0,0,0-6,12.08,32.93,32.93,0,0,0-.62,6.88c0,5.79.89,13.06,5.92,18.75S159.05,100,162.85,100c12.46,0,16.18-7.86,18.74-14.64l-2.31-.87ZM191.4,29.67c3.53-.1,4.68-.1,8-.4l-.09,10.91V87.53l.09,9.13h6.89V99H182.73V96.66h7.69l.09-9.13V40.18L190.42,32h-7.69V29.67Zm24.13,0c3.54-.1,4.69-.1,8-.4l-.09,10.91V87.53l.09,9.13h6.89V99H206.87V96.66h7.69l.08-9.13V40.18L214.56,32h-7.69V29.67Zm50.57,21.9a68.88,68.88,0,0,0,8.4-.39l-.09,10.22V88.61l.09,8h7.33V99h-7.42c-3.8.1-5.31.2-8.49.39l-.44-8.74c-1.59,2.65-5.57,9.33-15.11,9.33-4.25,0-8-1.47-9.91-3.83-2.83-3.14-2.83-8-2.83-10.21l.09-11.88-.26-20.14h-6.64V51.58h6.9c4.07-.1,5.49-.1,8.66-.39L246.3,61.4V78c.08,9.44.18,14.15,2.56,16.8a6.68,6.68,0,0,0,4.95,2,10.42,10.42,0,0,0,7.52-3.64c4.15-4.52,4.24-9.92,4.33-14.54V61.4l-.09-7.46h-8V51.58h8.49Zm22,29.67c.26,4.32.62,8.94,4.16,12.67a10.32,10.32,0,0,0,8,3.34c6.36,0,9.91-3.54,9.91-8.44,0-5.6-4.42-7.47-10.35-9.74-5.22-2-13.09-5-13.09-14.63,0-8.55,5.75-14,14.24-14,4.59,0,8.66,1.57,12.37,2.84l.17,12.58H311c-.63-3.93-2-12.67-10.35-12.67-5,0-7.78,3.34-7.78,7a6.62,6.62,0,0,0,1.59,4.42c1.23,1.37,1.95,1.67,8.84,4.42s13.61,5.9,13.61,15.72c0,8.94-6.54,15.32-16.61,15.32-5.49,0-10.09-1.57-14.68-3.14V81.24Z"/>
    <g>
      <path class="cls-2" d="M430.59,89.86a5.61,5.61,0,1,0,0,11.22,5.67,5.67,0,0,0,5.61-5.61A5.52,5.52,0,0,0,430.59,89.86Zm0,10.24a4.64,4.64,0,1,1,4.63-4.63A4.35,4.35,0,0,1,430.59,100.1Z"/>
      <path class="cls-2" d="M433.52,94c0-1.21-.49-1.7-2.2-1.7h-2.68v6.34h.73V96h1.46l1.71,2.68h1L431.57,96C432.79,95.71,433.52,95.22,433.52,94Zm-2.93,1h-1.22V93h1.71c.73,0,1.46,0,1.46,1C432.79,95.22,431.32,95,430.59,95Zm-43.9-36.83c-.25,0-.25,0-.49.24l-9.27,14.15a24.19,24.19,0,0,0,19,0l-9.27-14.15C386.93,58.15,386.69,58.15,386.69,58.15Zm-9-11.71-13.9-1.22a20.73,20.73,0,0,0-.73,5.61,24.19,24.19,0,0,0,5.61,15.37l9.76-18.54C378.88,47.18,378.64,46.69,377.66,46.44Z"/>
      <path class="cls-2" d="M408.64,28.64V1.08H364.49V28.64H336.93V72.79h27.56v27.56h44.15V72.79H436.2V28.64Zm-21.95-5.12a26.64,26.64,0,0,1,24.63,15.85H391.81a3.94,3.94,0,0,1-4.15-2.93c0-1.46.25-1.95,1.47-3.65a3.54,3.54,0,0,0-2.69-5.61c-3.17,0-4.14,3.65-2.68,5.61,1.22,1.7,1.46,2.19,1.46,3.65,0,1.22-1.21,2.93-4.14,2.93H361.57A28.29,28.29,0,0,1,386.69,23.52ZM359.37,50.83a29.84,29.84,0,0,1,1.71-9.51L379.37,43c3.42.49,3.9,3.9,2.93,5.85L369.86,72.54A27.91,27.91,0,0,1,359.37,50.83Zm42.2,22.93a26.82,26.82,0,0,1-15.13,4.39,28.89,28.89,0,0,1-15.12-4.39L384.74,54c1-1.46,2.44-1.21,3.41,0Zm1.95-1.46L391.08,48.88c-1-2-.49-5.36,2.93-5.85l18.29-1.71A25.27,25.27,0,0,1,414,50.83,27.07,27.07,0,0,1,403.52,72.3Z"/>
      <path class="cls-2" d="M404.49,35.47a23.11,23.11,0,0,0-11.22-7.32c1.47,2.2.25,5.37-1,6.83a.34.34,0,0,0,0,.49Zm-8.78,11c-1,0-1,.49-.73,1L404.74,66a24.27,24.27,0,0,0,5.61-15.37,21.13,21.13,0,0,0-.73-5.61Zm-15.61-18a23.22,23.22,0,0,0-11.22,7.32h12.2c.24,0,.24-.24,0-.49C379.86,33.52,378.64,30.59,380.1,28.39Z"/>
    </g>
    <g>
      <path class="cls-2" d="M525,1.08a73.38,73.38,0,0,1-33.9,8.29,73.38,73.38,0,0,1-33.9-8.29c-7.08,13.9-8.05,36.34-2,55.12,5.86,18,17.32,34.63,35.86,44.88,18.78-10.25,30-26.83,35.85-44.88C533.27,37.42,532.05,15,525,1.08ZM520.1,54c-5.36,15.37-13.41,29-28.78,38.54C476,83,467.66,69.37,462.54,54c-4.63-13.65-5.85-29.75-.73-42.19A94.05,94.05,0,0,0,478.15,16a66.12,66.12,0,0,0,13.17,1,95.44,95.44,0,0,0,13.17-1,88.65,88.65,0,0,0,16.34-4.15C525.71,24.25,524.74,40.35,520.1,54Z"/>
      <path class="cls-2" d="M504.49,19.37a123.4,123.4,0,0,1-13.41,1,128.33,128.33,0,0,1-13.42-1c-4.39-.73-8.78-1.71-13.41-2.93-3.17,9.27-2.68,21,0,31.22,4.63,19.52,16.58,34.39,26.83,41,10.49-6.59,22.19-21.46,26.83-41,2.44-10.48,3.17-21.95,0-31.22A88.31,88.31,0,0,1,504.49,19.37ZM488.64,79.61c-.24,1,.24,1.47.24,2-.24.73-.73.48-1,0a3.65,3.65,0,0,1-.73-2.44A3.22,3.22,0,0,1,488.4,76a4.19,4.19,0,0,1,1-.74l.25,3.17C489.13,78.39,488.64,78.64,488.64,79.61Zm4.15,3.18c0,.48-.25,1-1.22,1-.74,0-1.22-.24-1.22-1.22-.25-3.9-.25-11-.25-11a6.21,6.21,0,0,1,1.71.73c.24,0,.73.49,1.22,1,0,.25.24.25.24.49C493,76.44,492.79,81.57,492.79,82.79ZM496,75.47a6.09,6.09,0,0,1-1.95,1V73.52a1.09,1.09,0,0,0,.24-.73,11.72,11.72,0,0,0-3.17-2.44,30.68,30.68,0,0,0-3.66-1.22A4.06,4.06,0,0,1,485,63.52c.24-1,1.46-1.47,1.95-1.71a10.27,10.27,0,0,1,1.47-.49l.24,3.42s-.24,0-.49.48a.73.73,0,0,0,.49,1,59.53,59.53,0,0,1,5.61,2.68c2.19,1.22,2.93,2.2,2.93,3.91A2.66,2.66,0,0,1,496,75.47Zm-6.1-15.86c1.71.25,2.19.25,3.66.49l-.25,6.83-1.46-.73-1.46-.73Zm9.76,1.47a4.36,4.36,0,0,1-2.2,2.92,5.82,5.82,0,0,1-2.68.74V60.59a.74.74,0,0,0,.48-.24.9.9,0,0,0,.25-.74c0-.24-.25-.48-.49-.73a2.68,2.68,0,0,0-1.22-.24l-5.85-.73c-3.42-.49-6.1-2.69-5.86-6.1.25-2.2,2.44-2.93,4.15-3.66l1.22,2.44a7.16,7.16,0,0,0,.49,1.46s-.73.25-.73.74.73.73,1,.73A31.8,31.8,0,0,1,495.71,55a6.27,6.27,0,0,1,2.93,2A5.75,5.75,0,0,1,499.62,61.08ZM488.4,45.22s.73,0,2.92.25A8,8,0,0,1,494,46l-.25,7.31c-1.71-.24-2.68-.48-4.14-.73a16.82,16.82,0,0,0-2.2-5.61c-.24-.49,0-.73,0-.73a4.21,4.21,0,0,1,1.22-.49ZM495,52.54s.24-3.41.24-5.12a1.23,1.23,0,0,0,.74-2,1.67,1.67,0,0,0-1.22-.73,44.9,44.9,0,0,0-5.61-.74c-1.71-.24-3.17-.48-4.64-.73a10.85,10.85,0,0,1-7.56-5.36,7.59,7.59,0,0,1,3.42-10,9,9,0,0,1,8.29,0c1,.24,1.46,1.22,1.95,1.95.24.24.73.49,1,1,.24.25-.25.25-.25.25a7.07,7.07,0,0,1-3.17,0h-2.93a27.22,27.22,0,0,0,2.69,1.46c.49.25,1,.25,1.46.49.25,0,.73.24.73.49s-.48.24-1,.48a4.9,4.9,0,0,1-2.69,0c-1.46-.24-2.19-1.21-3.17-.73-.73.49-.73,1.22-.48,2.2.24,1.46,1.7,2,2.92,2.44,4.15,1.46,8.78.48,12.69,2.68,1.46.73,3.41,2.44,3.65,4.15C503.27,51.57,495,52.54,495,52.54Zm7.32-22.68c-.25.73-.49.73-1,1.22-1,1-2.44,2-3.9,3.17A7.67,7.67,0,0,0,495,36.69a3.63,3.63,0,0,0-.49.73c-2.44-.49-4.63-.49-6.58-1V34.49s2.19,0,2.44-1.46a1.17,1.17,0,0,0-.25-.73,2.48,2.48,0,0,0-1.22-.49A21,21,0,0,1,494,33.52a5.35,5.35,0,0,0-.25-1,2.6,2.6,0,0,0-1.22-.73c-1-.24-3.66-.49-3.66-.49h2.2c.49,0,1.22-.24,1.22-.49.24-.24,0-.73-.49-1.22l-.73-.73c-.25-.49-.73-1-1-1.46A6.87,6.87,0,0,0,487.66,26s-.24-1.22.25-1.71c.24-.49,1.22-.49,1.46-.25A20.11,20.11,0,0,0,494,26c.48.24.48.24.48,1,.25,1.22-.24,2.93,0,3.66,0,.24.49.24.49.24,1.71-1,2.68-2.44,4.39-3.17C500.59,27.18,502.79,28.15,502.3,29.86ZM525.47,90.1a5.37,5.37,0,1,0,5.36,5.37A5.42,5.42,0,0,0,525.47,90.1Zm0,10a4.64,4.64,0,1,1,4.63-4.63A4.49,4.49,0,0,1,525.47,100.1Z"/>
      <path class="cls-2" d="M528.4,94c0-1.21-.49-1.7-2.2-1.7h-2.68v6.34h.73V96h1.22l1.71,2.68h1L526.2,96C527.42,95.71,528.4,95.22,528.4,94Zm-2.93,1.22h-1.22v-2H526c.73,0,1.46,0,1.46,1S526.2,95.22,525.47,95.22ZM486,28.15c.48.49.48,1,1.22,1a1.28,1.28,0,0,0,1-.49h.49c-.73-.73-2.44-.73-3.66-1C485.47,28.15,485.71,27.91,486,28.15Z"/>
    </g>
  </g>
</svg>
