<svg xmlns="http://www.w3.org/2000/svg" width="1076.8" height="300" viewBox="0 0 1076.8 300">
  <title>helix-r</title>
  <g>
    <path d="M727.68,295.66l59.21-101.27L727.63,87.85h48.91l59,106.43L777,295.66Z" style="fill: #f01d0c"/>
    <path d="M969,295.54l59.15-101.15L969,88h48.86l58.95,106.31-58.52,101.26Z" style="fill: #424c59"/>
    <path d="M895.66,295.66,837.07,194.28l59-106.43H945L885.73,194.39,945,295.66Z" style="fill: #f01d0c"/>
    <path d="M58.52,295.54,0,194.28,59,88H107.8L48.6,194.39l59.15,101.15Z" style="fill: #424c59"/>
    <path d="M132.74,295.41V.07H183V114.4q7.5-14.4,26.35-23.31t35.88-8.92a94.1,94.1,0,0,1,26.25,3.44,67.36,67.36,0,0,1,20,9.13,61.43,61.43,0,0,1,14.19,13.88,77.53,77.53,0,0,1,9.53,16.62,107.53,107.53,0,0,1,5.57,18.55,155.92,155.92,0,0,1,2.84,18.45q.71,8.31.71,17.43V295.41H274V178.05q0-29.4-9.12-42.27t-27.37-12.87q-20.67,0-37.6,14.29T183,170.14V295.41Z" style="fill: #f01d0c"/>
    <path d="M532.08,237.16q-32,22.31-65.67,22.3-28.79,0-46.12-14.6t-18.54-45H539.82L547,165.44a141.42,141.42,0,0,0-3.42-16.66,109.11,109.11,0,0,0-15.91-34.36q-10.75-15.3-29.19-23.82t-43.18-8.51q-24.74,0-45.1,8.92t-33.65,24.12A111.39,111.39,0,0,0,355.94,150a118.34,118.34,0,0,0-7.3,41.55q0,48.45,30.3,78.45t82.81,30q24.31,0,44.29-6.39a135,135,0,0,0,15.63-6.12l10.42-50.31ZM421.81,133q14.6-12.16,36.29-12.16,18.43,0,31.22,11.75t16.41,33.86H402.35Q407.23,145.14,421.81,133Z" style="fill: #f01d0c"/>
    <rect x="655.45" y="87.77" width="48.45" height="207.56" style="fill: #f01d0c"/>
    <polygon points="664.25 0 655.25 43.45 655.25 44.22 703.9 44.22 703.9 0 664.25 0" style="fill: #f01d0c"/>
    <polygon points="597.91 0 563.63 165.44 556.5 199.86 548.77 237.18 538.34 287.49 536.72 295.34 586.38 295.34 638.58 43.45 647.58 0 597.91 0" style="fill: #f01d0c"/>
  </g>
</svg>
