<svg id="Layer_1" data-name="Layer 1" xmlns="http://www.w3.org/2000/svg" viewBox="0 0 438 100">
  <defs>
    <style>
      .cls-1 {
        fill: #9d1314;
      }
    </style>
  </defs>
  <title>c</title>
  <g>
    <path class="cls-1" d="M95.51,70.79a60.52,60.52,0,0,0,8.32-15.69h6.71a89.59,89.59,0,0,1-12,21.27V87h-6V76.47a91.59,91.59,0,0,1-12-21.27h6.71a55.79,55.79,0,0,0,8.22,15.59"/>
    <path class="cls-1" d="M157,68.15c-2.93-1-4.63-1.42-5.67-2.18A2.55,2.55,0,0,1,150,63.61a3,3,0,0,1,1.89-2.74,9.28,9.28,0,0,1,4-.76,21.6,21.6,0,0,1,6.9,1.33l2-4.63a20.81,20.81,0,0,0-8.89-2,14,14,0,0,0-8,2.17,7.79,7.79,0,0,0-3.69,6.81c0,5.48,4.64,7.56,9.17,9.07a36.42,36.42,0,0,1,5.2,1.89,3.58,3.58,0,0,1,2.08,3.12,3.37,3.37,0,0,1-1.89,3,10,10,0,0,1-4.73.94,16,16,0,0,1-9.45-3.12l-2.08,4.82a20.62,20.62,0,0,0,11.82,3.6c7,0,12.29-3.69,12.29-9.65,0-5.19-4.26-7.75-9.46-9.35"/>
    <path class="cls-1" d="M124.34,81.38H120V60.68h3.78c6.62,0,10.87,3.59,10.87,10.11,0,6.24-3.87,10.59-10.3,10.59m-.66-26.28h-9.55V87h10.12c9.35,0,16.35-6.62,16.35-16.17,0-9.35-6.62-15.69-16.92-15.69"/>
    <path class="cls-1" d="M195.89,82.14h-5.1V72.87h5.29c4.54,0,6.9,1.23,6.9,4.45,0,4.25-4.07,4.82-7.09,4.82m-5.1-22.22h4.53c4.26,0,6.24,1,6.24,3.79s-2,4.34-5.76,4.34h-5Zm11,10.31h0c3.4-1.14,5.48-3.5,5.48-7.19,0-5.57-4.91-7.84-9.73-7.84H185.12V87h11.53c5.95,0,12-2.46,12-9.08,0-4.44-2.74-7.09-6.9-7.65"/>
    <polygon class="cls-1" points="271.13 55.1 265.55 55.1 265.55 78.07 265.45 78.07 252.03 55.1 244.76 55.1 244.76 86.96 250.24 86.96 250.24 63.23 250.33 63.23 264.04 86.96 271.13 86.96 271.13 55.1"/>
    <polygon class="cls-1" points="289.56 70.42 304.3 55.1 296.83 55.1 283.6 69.38 283.41 69.38 283.41 55.1 277.84 55.1 277.84 86.96 283.41 86.96 283.41 71.55 283.6 71.55 297.69 86.96 305.53 86.96 289.56 70.42"/>
    <polygon class="cls-1" points="27.84 86.96 45.7 86.96 47.59 81.28 33.6 81.28 33.6 55.1 27.84 55.1 27.84 86.96"/>
    <polygon class="cls-1" points="3.26 86.96 21.13 86.96 23.11 81.28 9.12 81.28 9.12 55.1 3.26 55.1 3.26 86.96"/>
    <path class="cls-1" d="M64.7,81.85c-6.43,0-10.11-4.72-10.11-10.77S58.27,60.3,64.7,60.3s10.21,4.92,10.21,10.87S71.13,81.85,64.7,81.85m.09-27c-9.73,0-16.16,7.18-16.16,16.26S54.87,87.24,64.7,87.24,80.86,80,80.86,71,74.43,54.82,64.79,54.82"/>
    <path class="cls-1" d="M225.66,80.15a24.77,24.77,0,0,0,6.62-.75L235.21,87h6.62L228.12,55.2H223.3L209.5,87h6.62l2.93-7.56a24.7,24.7,0,0,0,6.61.75m0-4.82a21.51,21.51,0,0,1-4.91-.47l4.91-12.57,4.92,12.57a21.6,21.6,0,0,1-4.92.47"/>
    <path class="cls-1" d="M430.29,52.55c-4.15-3.12-7.84-7.75-11.9-12-1.61-1.8-2.93-2.65-5.11-2.65-1.23,0-2.93.38-4.25.38a23.5,23.5,0,0,0-5.86.47c-1.42-1.13-1.23-2.27-.47-2.74,1.79-.94.09-1.61.09-2.93a1.35,1.35,0,0,1,2-1.13c.85-2.08-.86-4.45-1.23-6.05a4.35,4.35,0,0,0,3.21-2.37c-1.23-.66-4-2.26-4.06-4.91,2.17-.28,3.87-2.08,3.4-4.16a1.27,1.27,0,0,1-1.51,0c-.76-.38-.57-.75-1.61-1.51s-3.21-.95-3.69-2.46c1.23-1.89,1.14-4.06,0-4.91a1.93,1.93,0,0,1-1.51,1c-1.7,0-2-1-3.5-2.37-.47-.37-1.32-1-3.68-1-1.52,0-2.74-.94-3.88-.85.57.66.29,2-.75,1.8-.38,0-1-1.14-2-1.8-.75-.56-1.42-.47-2.17-1C381.24.85,381.33,0,380.67,0s-.47.85-.47,1.32c0,1,.47,1.23.38,2.56-.95-.57-1.32-1.71-2.36-1.71-.19,0-.29,0-.38.19,0,0-.19.29.09,1.14s1.51,1.32,1.51,2.45c0,2-2.64,3.31-2.64,5.3,0,.38.28.56.28.94.1,1-.94,1.8-1.51,3.12-.95,1.89-.85,2.65-1.89,4.63-.47.95-1.23,1.23-1.23,2.27,0,2,.85,4.35,2.84,4.35.94,0,2,.85,2.83.38,2.46-1.33.76-1.89,1.89-3,1.7-1.7,3.31-3.31,5-3.31.55,0,.83.72.85,1.88,0,3.86-3,9.2-6.24,11.92A29.64,29.64,0,0,1,376,36.86a16.7,16.7,0,0,1-9.54,3.4c-5.11,0-7.19-1.22-12-1.22a16.64,16.64,0,0,0-9.26,3c-7.37-.76-7.66-10.21-15.79-10.21-5.57,0-9.92,4.73-9.92,11,0,5.76,2.84,9.26,7.75,12.76.85.66,1.7,1,1.7,2.45,0,2.93-5.2,3-5.2,6.9a3.23,3.23,0,0,0,3.31,3.31,1.86,1.86,0,0,0,1.8-.94,1.49,1.49,0,0,1-1-1.23c0-2.55,8.5-1,8.5-8.13,0-6.14-7.56-7.18-7.56-11.82,0-.66.29-1.32.76-1.32S330,46,331,46.22c.37-1.32,1.89-3.31,3.49-3.31.38,0,.67.19.38.47a2.74,2.74,0,0,0-.85,2.08,1.68,1.68,0,0,0,.95,1.42,3,3,0,0,1,2.55-1.7c1.32,0,1.32.57,3.4.38.47,0,.47.28.47.38a13.12,13.12,0,0,0-2.74,6c-.75,4.73.38,7,.38,8.13a5,5,0,0,1-.47,3.31c-.76,1.32-.38.57-1.61,2.46-2.08,3.31-6.05,3.5-5.58,7.28.95,6.52,0,12-.18,15.31a30.32,30.32,0,0,1-.48,3.21c0,2.46,2.74,2.37,3.22,4.73.28,1.23-.1,1.89.47,2.93a1.56,1.56,0,0,0,1.13.66h5.2c.66,0,.85-.66.85-1.13-.19-1.89-1.7-3.12-3-4-2.08-1.42-2.55-2.27-3.22-4.82-.47-4,.29-7.94.67-11.91a6.27,6.27,0,0,1,1.79-4.07,5.7,5.7,0,0,1,2.08-1.51,15.08,15.08,0,0,0,7.47-2.93c.09,2.93-2.84,3.4-2.84,6.33,0,2.37,1.8,3.31,3.22,5.11,2.55,3.49,3.87,4.63,6.9,9.45,1,1.79,0,2.55,1.41,4,.85.66,1.33.47,2,1.23.94,1.13.47,2.27,1.13,3.49a1.25,1.25,0,0,0,1.23.76h4.82c.76,0,1-.38,1-1.13,0-1.61-1.51-3.41-3.87-4.64s-4.63-5.1-6-7.46c-1.52-2.84-4.45-5.2-5.3-8.51-.66-2.65,0-4.06,2.37-5.1,4.44-2.08,7.37-7.38,8.79-11.35a74.61,74.61,0,0,1,9.35,1,37.55,37.55,0,0,0,13.71-.75c2.46-.66,3.78-1.7,5.58-2.08h-.19c2.17-.38,2.55.85,4.63.19,5.58-1.61,10-5.39,13.33-6.62a6,6,0,0,1,1.89-.38c1.22,0,1.41.57,2.64,1.89,2.37,2.56,3.59,6.81,4.63,11.06.29.76,1.61.66,1.61,1.51,0,1.42-1.13,2-1.13,3.41,0,1.79,4.06,3.49,5.67,3.49,1.13,0,1.23-1.22,1.23-2.07,0-2.84-1.14-4.26-2.56-6.53a104.09,104.09,0,0,1-6.9-14.55c-.85-2-1.89-3.88-4-3.88s-4.72.29-6.8.29l-2.17.09.37-.47a16.08,16.08,0,0,0,3.69-1.33c2.46-1,3.88-2.64,5.58-2.64a7.67,7.67,0,0,0,1.51-.1c.94-.09,3,.95,5,2.93,2.36,2.37,4.35,4.54,4.91,5.86.57,1.14.66,1.42,1.42,1.89s1.61,0,2.08.76-.38,2.08.28,2.93a5.24,5.24,0,0,0,4.16,1.61c2.08,0,3-.76,3-1.52C434.74,55.29,432.47,54.16,430.29,52.55ZM383.22,12.19c-1.89-.66-2.83.66-4,2.46A12.57,12.57,0,0,0,377.18,20c-.29,2.36,1.13,2.93.18,3.68s-1.32.57-.94-.19c.47-1,.38-2.55-.85-2.07s-2.17.28-1.7-.29a9,9,0,0,0,1.51-3,38.93,38.93,0,0,1,2.65-5.3c.85-1.7-.38-1.51-.1-2.55a14.58,14.58,0,0,1,1.8-2.55c.66-.66,1.32-1,1.79-.85s.48.66.29,1.89c-.38,1.23-.19,1.7.75,2.08S384,12.57,383.22,12.19Zm-48,25.62a9.48,9.48,0,0,0-2.36-.29c-3.22,0-3.88,1.8-4.63,1.8a.35.35,0,0,1-.38-.38c0-.85,1.13-1.42,1.13-2.08,0-.38-.19-.75-1.13-.75-3.31,0-4.92,4.82-5.77,4.82-.38,0-.38-.48-.47-1.14a8,8,0,0,1,7.56-6.9A7,7,0,0,1,336,37.24C336.34,38.28,335.59,37.9,335.21,37.81ZM339,97.45c.28.38.66,1.23.09,1.23h-1.22c-.85,0-1-2.18-1.23-3A5,5,0,0,1,339,97.45Zm25.05,0c.19.38.47,1.23-.1,1.23h-1c-.85,0-.94-2.18-1.13-3A4.74,4.74,0,0,1,364,97.45Zm15.78-59.83a17.56,17.56,0,0,1-2,2.36,9.94,9.94,0,0,0-2.55,4.35c-.76,3.4-1.52,4.44-6.05,4.91-3,.38-4.07-.47-4-.94-.19-1.14,1.79-1.23,1.79-2.36,0-.57-2-2.08-6.61-2.08a20.51,20.51,0,0,0-15.13,6.23c-2.83,2.75-3.59,5.77-4.34,5.77-.29,0-.38,0-.48-.85-.56-5.2,3.69-14.08,15-14.08,3.78,0,7.37,1.22,11.53,1.22a21.21,21.21,0,0,0,10-3.3c.66-.48,2.27-1.52,2.74-1.89C380.2,36.86,380,37.15,379.82,37.62Zm20.7,9.54c-.66,1.71-.19-5.19-8.41-9-2.65-1.23-3.69-1.71-1.61-3.88,6.52-6.24,8.79-19.19,1.61-23.91-1.42-1-2.55-1.33-2.55-1.52s1-.18,2.27.29c10.77,4.54,8.5,17.67,4.91,26.37-.85,2.17,0,1.51,2.27,4.16A7.18,7.18,0,0,1,400.52,47.16Zm21.65,21.46a4.58,4.58,0,0,1,1.41,3.21c0,.48-.09,1-.47,1s-1.89-.47-1.89-1C421.22,71.17,422,70.13,422.17,68.62Zm10-10.49c-1,0-.29-1.89-1-3.4,1.13.37,2.45,1.89,2.45,2.74C433.6,57.94,432.75,58.13,432.19,58.13Z"/>
  </g>
</svg>
