<?xml version="1.0" encoding="utf-8"?>
<!-- Generator: Adobe Illustrator 24.1.2, SVG Export Plug-In . SVG Version: 6.00 Build 0)  -->
<svg version="1.2" baseProfile="tiny" id="图层_1"
	 xmlns="http://www.w3.org/2000/svg" xmlns:xlink="http://www.w3.org/1999/xlink" x="0px" y="0px" viewBox="0 0 393.26 131.09"
	 overflow="visible" xml:space="preserve">
<path fill="#C4161C" d="M392.06,31.98L357.5,57.6l-6.5-9.91l27.25-20.01l-0.04-1.88c-0.68-5.35-3.32-8.04-7.96-8.04
	c-5.46,0-10.39,2.9-14.86,8.73c-4.42,5.82-8.02,12.56-10.83,20.29c-2.75,7.61-4.05,14.37-3.93,20.29c0.14,5.91,2.86,8.88,8.16,8.88
	c1.68,0,3.6-0.46,5.72-1.41c2.11-0.89,3.98-2.2,5.52-3.83l1.7-1.72l10.29,7.33l-3.39,3.17c-9.49,8.87-18.26,13.28-26.32,13.28
	c-6.78,0-11.46-2.27-14.08-6.84c-2.64-4.59-3.59-10.45-2.88-17.52c0.65-7.11,2.38-14.43,5.13-22.01
	c3.02-7.91,6.63-15.18,10.84-21.78c4.18-6.61,9.18-12.09,14.96-16.42c5.79-4.37,12.19-6.64,19.19-6.86c4.87,0,8.7,1.24,11.55,3.71
	c2.8,2.49,4.69,5.76,5.54,9.82c0.86,4.07,0.91,8.44,0.12,13.18L392.06,31.98z"/>
<path fill="#6D6E71" d="M19.34,46.75c-2.83,7.79-4.18,14.58-4.05,20.42c0.15,5.82,3.18,8.76,9.16,8.76
	c10.23,0,19.05-10.23,26.47-30.67c2.97-8.2,4.41-14.8,4.32-19.83c-0.11-5.02-3.29-7.69-9.56-8.04
	C35.78,17.39,27.01,27.18,19.34,46.75 M52,0c7.8,0,13.06,2.16,15.83,6.45c2.77,4.3,3.71,9.7,2.87,16.14
	c-0.85,6.45-2.77,14-5.76,22.66c-4.74,13.05-10.78,24.02-18.1,32.97c-7.36,8.95-16.45,13.41-27.33,13.41
	c-7.98,0-13.41-2.22-16.26-6.64c-2.85-4.42-3.83-9.97-2.93-16.68C1.22,61.66,3.14,54.2,6.1,46.03C17.24,15.34,32.53,0,52,0
	 M115.61,17.39h-0.41c-4.39,0-8.09,1.25-11.15,3.78c-3.02,2.49-5.55,5.77-7.52,9.76c-2,4.02-4.23,9.48-6.73,16.39
	c-2.24,6.33-3.8,11.22-4.7,14.74c-0.89,3.49-0.79,6.64,0.28,9.47c1.09,2.81,3.96,4.27,8.59,4.4c4.98,0,9.67-2.68,13.98-8.05
	c4.31-5.36,7.75-11.59,10.34-18.7c3.13-8.64,4.99-16.09,5.6-22.38C124.51,20.54,121.73,17.39,115.61,17.39 M104.6,9l3.16-2.45
	c4.59-3.89,9.41-6.01,14.46-6.36c6.3,0,10.7,2.12,13.2,6.36c2.5,4.21,3.49,9.57,2.93,16.09c-0.58,6.48-2.14,13.27-4.71,20.37
	c-11.37,31.33-25.78,47.53-43.25,48.63c-6.83,0-11.48-2.07-13.91-6.17l-16.55,45.63H47.18L94.4,0.91h13.13L104.6,9z M204.78,31.98
	L170.24,57.6l-6.5-9.91l27.24-20.01l-0.03-1.88c-0.68-5.36-3.32-8.04-7.96-8.04c-5.45,0-10.4,2.9-14.85,8.73
	c-4.42,5.82-8.02,12.55-10.82,20.29c-2.76,7.61-4.05,14.37-3.93,20.28c0.13,5.93,2.85,8.89,8.15,8.89c1.68,0,3.6-0.46,5.71-1.41
	c2.09-0.89,3.98-2.2,5.54-3.84l1.71-1.71l10.29,7.33l-3.39,3.18c-9.48,8.85-18.25,13.28-26.34,13.28c-6.76,0-11.46-2.27-14.07-6.85
	c-2.64-4.59-3.59-10.45-2.89-17.52c0.67-7.11,2.39-14.43,5.14-22.01c3.03-7.91,6.64-15.19,10.84-21.78
	c4.18-6.61,9.18-12.09,14.96-16.42c5.79-4.37,12.19-6.65,19.2-6.85c4.86,0,8.7,1.23,11.56,3.7c2.8,2.5,4.66,5.77,5.53,9.83
	c0.86,4.07,0.89,8.44,0.11,13.18L204.78,31.98z M265.74,37.21l-18.93,52.18h-12.74l17.11-47.13l0.96-2.65
	c5.46-15.09,4.52-22.62-2.8-22.62c-10.44,0-18.59,8.04-24.43,24.12L207.4,89.39h-13.13l32.11-88.48h13.11l-3.05,8.45
	c2.8-2.6,6.13-4.72,9.89-6.33c3.82-1.66,7.41-2.47,10.84-2.47C271.64,0.91,274.49,13.13,265.74,37.21 M309.35,46.94h-32.3
	l5.74-15.86h40.04l-5.74,15.86H309.35z"/>
</svg>
