<svg id="Layer_1" data-name="Layer 1" xmlns="http://www.w3.org/2000/svg" viewBox="0 0 575 100">
  <defs>
    <style>
      .cls-1 {
        fill: #9d1314;
      }
    </style>
  </defs>
  <title>c</title>
  <g>
    <g>
      <polygon class="cls-1" points="414.47 19.15 414.47 81.1 448.63 81.1 448.63 73.72 425.05 73.72 425.05 19.15 414.47 19.15"/>
      <g>
        <path class="cls-1" d="M58.69,48.71h10c7,0,10.86-3.84,10.86-11.74,0-4.47-1.34-11.5-10.11-11.5H58.76ZM71.23,19.17a25.32,25.32,0,0,1,8.65,1.06c6.92,2.57,11.57,8,11.57,16.6A17.55,17.55,0,0,1,80.32,53.16l18.4,28H85.62l-16-25.26h-11V81.13H47.37V19.19Z"/>
        <path class="cls-1" d="M23.42,50.68c9.47-.3,10.94-7.57,10.94-12.81,0-10.92-6.24-12.24-11.7-12.24H13.15V50.68Zm-.91-31.49a56.79,56.79,0,0,1,8,.2c9.8,1.55,15.17,8.58,15.17,19.1a18.49,18.49,0,0,1-8.17,15.43c-3.67,2.68-8.76,3.53-14.88,3.53h-9.5V81.13H2V19.19Z"/>
        <path class="cls-1" d="M135.78,81.14a28.91,28.91,0,0,0,9-6.87h13.82a21.2,21.2,0,0,0,12.68-4c6.13-4.41,9.68-11.81,9.68-21.82,0-8.7-5.1-17.15-9.67-19.59-4.93-2.67-5.6-3.09-12.93-3.09H147.19V58.29c0,6.93-1.34,11.85-5.57,16.06-5.1,5.08-12.88,8-21.12,8-17.4,0-27.75-8.16-27.75-22.65V19.16h10.53V58.33a26.41,26.41,0,0,0,.83,7.24c1.61,5.62,8.28,9.17,16.39,9.17,10.35,0,15.71-5.73,15.71-16.27V19.16h26.07a35.06,35.06,0,0,1,13.89,2.33c10,4.44,16.71,13.6,16.71,27.68,0,15.61-9.38,31.93-34.67,31.93Z"/>
      </g>
      <rect class="cls-1" x="342.59" y="19.13" width="11.01" height="61.93"/>
      <polygon class="cls-1" points="287.71 26.12 309.56 26.12 309.56 81.06 320.58 81.06 320.58 26.12 340.74 26.12 340.74 19.16 279.44 19.16 279.44 64.83 242.51 19.19 233.18 19.19 233.18 73.86 203.28 73.86 203.28 52.66 229.08 52.66 229.08 45.48 203.28 45.48 203.28 25.95 230.38 25.95 230.38 19.19 192.47 19.19 192.47 81.14 241.47 81.14 241.47 35.78 278.8 81.14 287.71 81.14 287.71 26.12"/>
      <path class="cls-1" d="M373.08,57.52h20.27L383.08,32.84Zm15.59-38.4,26.15,61.93h-12l-6.7-16.44H370l-6.81,16.44h-9.87L380.3,19.12Z"/>
    </g>
    <g>
      <g>
        <path class="cls-1" d="M494.57,1.05c1.14,0,.88,1.72,3.28,1.72,1.38,0,1.54-.69,3.16-.69,4.69,0,6.4,5.65,9.65,5.65,1.49,0,1.63-1,3.19-1a3.58,3.58,0,0,1,2.1.79c.43.42,1.36,1.21,3.7,7.57.26.7-.11,1-.47,1s-1.09-.34-2.72-2c-.93-1-1.71-.52-5.77-3.06-1.9-1.19-3.74-2.91-5.78-3.68s-5.48-1-6.77-1.36c-1.7-.41-4.41-1.7-4.41-3.67,0-.65.38-1.22.83-1.22"/>
        <path class="cls-1" d="M517.67.28c1,0,1.7,1.47,2.69,2.46,2.32,2.22,5.93.79,8.66,3.53a6.34,6.34,0,0,1,1.25,4c0,1.61-.35,3.28-1.19,3.28-1.94,0-.69-3.14-4.6-5.48S519.91,5.63,518.3,4s-1.7-2.26-1.7-2.69a1,1,0,0,1,1-1h.07"/>
      </g>
      <g>
        <path class="cls-1" d="M535.38,7.62c1,0,.69,1.34,1.77,2.23s1.77.6,3.25,2.08c.67.67.84,1.12.84,1.3a2.76,2.76,0,0,1-2.79,2.51,1.25,1.25,0,0,1-1.31-.89c-.59-1.16-.33-2.79-1.56-4.22-1.07-1.25-1.21-1.37-1.21-2.09a1,1,0,0,1,1-.93"/>
        <path class="cls-1" d="M539.24,19.68c3,.86,4.53,2.1,4.53,3.95s-.74,2-1.37,2.91c-.49.67-1,1.65-.9,4.53,0,.58-.19.9-.62.9a.58.58,0,0,1-.65-.5.33.33,0,0,1,0-.14c0-.28.18-.48.18-.73a3.14,3.14,0,0,0-.86-2.44c-2.75-2.5-16.34-4.17-25-4.17-10.48,0-18.85,2.22-21.21,2.22-4.26,0-6.24-2.11-6.24-3.7s.93-1.86.93-2.61-.26-.88-.26-1.52.52-1.95,1-1.95c.77,0,.71.87,1.45,2.16a7.44,7.44,0,0,0,6.7,3.75c3.34,0,6.17-1.26,11.09-2.39a68.25,68.25,0,0,1,15.58-2c2.19,0,10.34.1,15.59,1.77"/>
        <path class="cls-1" d="M540.22,36.7c.65,0,1,.17,1,.6s-.68.42-1.08.5-3,.54-4.13,2.37a.46.46,0,0,0,.12.64l.08,0c.26.11,3.21,1.57,3.21,2.67s-2.28,2.11-3,2.11-.94-.82-.94-1,.65-.65.65-1-.54-.69-.85-.69-.49.16-.67.92a54,54,0,0,0-1,5.63c-.14,1.89-.72,6.63-.72,7.23A3.92,3.92,0,0,1,531.54,60c-1.33.93-2.5,1.6-2.5,1.6a2.42,2.42,0,0,1-.69.32c-.18,0-.62-.44-1.14-.88a2.38,2.38,0,0,0-1.48-.45c-.71,0-2,1.08-3.06,1.08s-3.06-1.11-3.06-1.76c0-.2.4-.38.51-.38a11.83,11.83,0,0,0,2.2.56c1,0,1.82-.86,3.09-.86.73,0,2.38.36,3.7.36s1.84-.34,2-.72a4,4,0,0,0,.65-2.44c0-1.49-1-6.58-1-9.65s.57-5.8,2.13-7.35a11.78,11.78,0,0,1,7.25-2.79"/>
        <path class="cls-1" d="M542.13,45.55c.37,0,.77.48.77,1.74a61.33,61.33,0,0,1-3.17,15.62c-2.27,5.86-2.9,5.91-4.91,9.28s-3.52,7-5.66,9.11c-.84.82-2,1.82-5,1.82a32.67,32.67,0,0,1-11.9-2.54A39,39,0,0,1,499.93,73c-.41-.44-.18-.84.54-.44a43.33,43.33,0,0,0,11.94,5.61c5.37,1.62,6.85,1.63,9.09,1.63s4.49.39,7.22-2.3,5-7.32,5.95-9.08a49.8,49.8,0,0,0,4.76-10.55,44.17,44.17,0,0,0,2.35-11.37c0-.54.06-1,.35-1"/>
        <path class="cls-1" d="M523.72,64.15c1.07,0,1.93,1.48,3.06,1.48s1.46-1.26,2.17-1.26.85,1.47,1.09,2a4.58,4.58,0,0,1,.4.94c0,.14-.26.34-.54.34a5.85,5.85,0,0,0-2-.48,2.26,2.26,0,0,0-1.67.73c0,.14-.23.1-.4,0-.37-.26-1.16-1.52-2.46-1.52a6.16,6.16,0,0,0-2.57,1,4.51,4.51,0,0,1-2.54.84c-.74,0-1.74-.29-1.74-.81,0-.29.4-.49.73-.49a4.78,4.78,0,0,0,3.16-.78c1.14-.67,2.4-2,3.33-2"/>
        <path class="cls-1" d="M520.43,69.2c.58,0,1.51,1.12,4.33,1.12s3.48-1.26,4.07-1.26c.34,0,.42.37.42.51s-1.07,3.65-3.94,3.65c-1.68,0-3.48-1.44-4.14-2.08a3.86,3.86,0,0,1-1.11-1.56.36.36,0,0,1,.35-.37h0"/>
        <path class="cls-1" d="M515.52,39.35c2,0,6.31.43,6.31,1.59,0,.63-2,0-3.46,0s-1.65.08-1.65.18a.38.38,0,0,0,.15.3c.14.1,1.13,1.18,1.13,1.47,0,1.17-3,2.35-3.73,2.35-.39,0-1.19-.42-1.19-.93s1.58-.76,1.58-1.14S513.75,42,512.92,42s-3.39,1.8-3.73,1.8-.43-.23-.43-.5.23-.75.23-1c0-.82-.56-.73-.56-1.37,0-.36.44-1,3-1.3a25.82,25.82,0,0,1,4.12-.33"/>
        <path class="cls-1" d="M514.34,33.83c2,0,6.29.33,7,.46s.83.43.83.62-.22.37-1,.37a30.55,30.55,0,0,0-8.87,1.17c-5.87,1.82-6.7,3.54-7.69,3.54a.89.89,0,0,1-.75-.77c0-.37.59-1.26.59-1.91,0-.48-.48-1-.48-1.29,0-1.07,5-2.19,10.43-2.19"/>
        <path class="cls-1" d="M566.21,32c3,0,4.2,2.94,4.2,6.43,0,.54-.26,1.46-.75,1.46-.7,0,.22-2-1.57-2a3.69,3.69,0,0,0-2,1.19c-.75.74-5.14,6.65-8.32,16.47-1.59,4.92-2.3,8-2.3,10.62a28.21,28.21,0,0,0,.53,3.67c0,1.09-1.14.39-1.33.07a12.79,12.79,0,0,1-1.25-5.83c0-2.92,1.25-10.26,3.53-17.71,1.22-4.06,4.72-14.4,9.28-14.4"/>
        <path class="cls-1" d="M557.49,79.49c.37,0,.68.19.68.4,0,.39-1.46,1.62-2.09,2.31-1,1.08-1.33,2.84-2.18,2.84-.28,0-.45-.32-.45-.57s.11-.48.11-.67c0-.85-1.11-.64-1.11-1.32s1.59-1.59,2.28-2a8,8,0,0,1,2.77-1"/>
        <path class="cls-1" d="M556.28,86.5c.46,0,.82.15.82.35,0,.43-1.75,1.48-2.09,1.82a12.89,12.89,0,0,0-2.44,4.09c-.3,1.36-.73,1.8-1.12,1.8-.83,0-.32-1.37-.94-1.8-.44-.32-1.63-.17-1.63-1.17,0-.65,1.09-1.71,2.09-2.6s3.11-2.49,5.31-2.49"/>
        <path class="cls-1" d="M549.19,73.51a1.11,1.11,0,0,1,1,.63c.23.39.12.63.51,1s1.74.59,1.74,1.24-.74.63-1.1.91a5.29,5.29,0,0,0-2.09,2A12.13,12.13,0,0,0,548,84.58a14.6,14.6,0,0,1-2.09,6.57c-1.26,2.1-3.15,3.74-4.22,5.46-.87,1.47-.57,3.11-1.48,3.11s-1-2.49-1-3.35a8.51,8.51,0,0,1,2.5-6c2.54-2.37,4.59-2.48,4.59-6.33,0-2.42-.3-3.17-.3-4.65s.51-5.91,3.28-5.91"/>
        <path class="cls-1" d="M449.17,20.54c1.5,0-.16.6,2.21,3,1.11,1.11,1.76,1.59,4.37,1.59,1.55,0,3.82-.36,9.49-2.9a23.86,23.86,0,0,1,8.42-2.08,13.08,13.08,0,0,1,7.77,2.95c1.84,1.36,4,3.25,5,4a16.28,16.28,0,0,0,3,1.84.69.69,0,0,1,.48,1,11.34,11.34,0,0,1-.95,1.61,4.21,4.21,0,0,1-1.2.69,16.73,16.73,0,0,0-3.63,2.12,14.05,14.05,0,0,1-8.34,3c-3.63,0-9.19-1.47-12.27-1.47a7,7,0,0,0-4.53,2c-.51.51-.94,1.48-1.29,1.82a5,5,0,0,1-1.94,1.11c-.43,0-1.19-.28-1.19-.69,0-.83,1.77-1.16,1.77-2.56s-.43-1.46-.43-2.1a4.57,4.57,0,0,1,1.34-2.64c1.77-1.75,6.33-2.8,10.43-2.8,3,0,8.73,1.29,12.67,1.29a9.8,9.8,0,0,0,3.72-.58c1.06-.48.83-1,.34-1a7.64,7.64,0,0,1-1.51.22,11.8,11.8,0,0,1-5.49-2c-2-1.37-5.31-3.23-8.47-3.23a15.64,15.64,0,0,0-6.41,1.5c-2.34.89-7.77,4-10.68,4s-6.29-1.44-6.29-3.91,2.46-2.3,2.46-3.78c0-.26-.12-.43-.12-.73a1.31,1.31,0,0,1,1.28-1.25"/>
        <path class="cls-1" d="M485,41.72c.63,0,.57.69,1,1.15s.57-.11,1.14.52.3.94.69,1.29,1,.32,1,.65c.11,1.33-.5,3.44-.5,6.69a22.76,22.76,0,0,0,1.19,7.18c.32,1-.37,1.14-.71.47-2.36-4.39-4.48-10.82-4.48-15.86,0-1.2.18-2.09.66-2.09"/>
        <path class="cls-1" d="M481.91,46.53c.29,0,.45.21.45.54a17.17,17.17,0,0,1-2.59,5.75c-1.52,2-3.95,4.63-4.83,4.63-.4,0-.4-.47-.48-.63a.67.67,0,0,1,.2-1c.58-.46.68-.75.68-1.07s-.26-.75-.26-1a1.59,1.59,0,0,1,.61-1.15,14.41,14.41,0,0,0,4-3c1.31-1.59,1.72-3,2.18-3"/>
        <path class="cls-1" d="M483.28,76.85c.29-2.59.59-5.43.77-8.07,1.58.73,2.76,1.68,2.76,3.62,0,2.34-2.56,3.94-3.54,4.45m1-12.3V63.32c0-5.48-1.19-9-1.93-9-1.11,0-2.34,5.39-2.83,8.23a13,13,0,0,0-4-.63c-2.76,0-3.28.59-3.28,1.3a4.08,4.08,0,0,0,1.28,2.41c1.68,1.69,3.6,1.64,5.43,1.72-.29,3.41-.62,7.8-.62,9.34v2.26a34.58,34.58,0,0,0-6,3.74c-1.52,1.52-1.69,2.38-1.69,3.39,0,3.71,3.29,3.55,3.29,6.1,0,1-.64,2,.17,2,1,0,1.78-1.88,1.78-3s-1-3-1-4.21.4-2.51,2.1-4.22a8,8,0,0,1,1.44-1.08c.12,3.32.28,7.12.34,8,.11,1.51.17,5,.92,5s2.11-6.79,2.74-11.55c.15-1.06.33-2.36.51-3.82.71-.34,1.41-.73,2.09-1.14,3.2-2,5.34-4.22,5.34-6.83,0-3.17-2.94-5.24-6.17-6.85"/>
      </g>
    </g>
  </g>
</svg>
