<?xml version="1.0" encoding="utf-8"?>
<!-- Generator: Adobe Illustrator 24.1.2, SVG Export Plug-In . SVG Version: 6.00 Build 0)  -->
<svg version="1.2" baseProfile="tiny" id="Layer_1" xmlns="http://www.w3.org/2000/svg" xmlns:xlink="http://www.w3.org/1999/xlink"
	 x="0px" y="0px" viewBox="0 0 192 58" overflow="visible" xml:space="preserve">
<path fill="#1C1C1C" d="M26.6,18.1c0.3,0.3,0.4,0.6,0.4,1v31c0,0.4-0.1,0.7-0.4,1c-0.6,0.5-1.4,0.5-2,0c-0.3-0.3-0.4-0.6-0.4-1V36.4
	c-0.8,1.5-2,2.7-3.4,3.6c-1.5,1-3.2,1.5-5,1.4c-1.9,0-3.8-0.5-5.5-1.6s-3-2.6-3.9-4.3c-1.9-3.9-1.9-8.5,0-12.4
	c0.9-1.8,2.2-3.3,3.9-4.3c1.6-1,3.5-1.6,5.4-1.6c1.8,0,3.5,0.5,5,1.3c1.4,0.8,2.6,2,3.5,3.4v-3c0-0.8,0.6-1.4,1.3-1.4l0,0
	C26,17.6,26.3,17.7,26.6,18.1L26.6,18.1z M20.4,37.6c1.3-0.8,2.3-2,3-3.4c1.4-3.1,1.4-6.7,0-9.8c-0.7-1.4-1.7-2.6-3-3.4
	c-2.6-1.7-6-1.7-8.6,0c-1.3,0.8-2.3,2-3,3.4c-1.4,3.1-1.4,6.7,0,9.8c0.7,1.4,1.7,2.6,3,3.4s2.8,1.3,4.3,1.2
	C17.6,38.9,19.1,38.5,20.4,37.6z"/>
<path fill="#1C1C1C" d="M52.2,18.1c0.3,0.3,0.4,0.6,0.4,1v13c0,3-0.8,5.3-2.5,6.9c-1.9,1.7-4.3,2.6-6.9,2.4c-2.5,0.1-5-0.7-6.8-2.4
	c-1.6-1.6-2.5-3.9-2.5-6.9v-13c0-0.8,0.6-1.4,1.3-1.4c0.4,0,0.8,0.1,1,0.4c0.3,0.3,0.4,0.6,0.4,1v13c-0.1,1.8,0.5,3.6,1.7,5
	c1.3,1.2,3.1,1.8,4.8,1.7c1.8,0.1,3.6-0.5,4.9-1.7c1.2-1.4,1.9-3.2,1.7-5v-13c0-0.4,0.1-0.7,0.4-1C50.8,17.6,51.6,17.6,52.2,18.1z"
	/>
<path fill="#1C1C1C" d="M79.5,18.3c0.3,0.3,0.4,0.6,0.4,1v20.4c0.1,0.7-0.5,1.4-1.2,1.5s-1.4-0.5-1.5-1.2c0-0.1,0-0.1,0-0.2v-3.1
	c-0.8,1.4-2,2.6-3.4,3.4c-1.5,0.9-3.2,1.4-4.9,1.4c-1.9,0-3.8-0.5-5.4-1.6s-2.9-2.6-3.8-4.3c-0.9-1.9-1.4-4.1-1.4-6.2
	s0.4-4.3,1.4-6.2c0.9-1.7,2.2-3.2,3.8-4.3c3.1-2,7.1-2.1,10.3-0.2c1.4,0.8,2.6,2,3.4,3.4v-2.8c0-0.4,0.1-0.7,0.4-1
	C78,17.8,78.9,17.8,79.5,18.3C79.4,18.3,79.4,18.3,79.5,18.3L79.5,18.3L79.5,18.3z M73.3,37.7c1.3-0.9,2.3-2,2.9-3.4
	c0.7-1.5,1.1-3.2,1.1-4.9c0-1.7-0.3-3.3-1.1-4.8c-0.7-1.4-1.7-2.6-2.9-3.4c-1.2-0.8-2.7-1.3-4.2-1.2c-1.5,0-3,0.4-4.2,1.2
	c-1.3,0.8-2.3,2-2.9,3.4c-0.7,1.5-1.1,3.2-1.1,4.9c0,1.7,0.3,3.4,1,4.9c0.6,1.4,1.6,2.6,2.9,3.4C67.4,39.4,70.7,39.4,73.3,37.7z"/>
<path fill="#1C1C1C" d="M106.8,6.4c0.3,0.3,0.4,0.6,0.4,1v32.3c0,0.4-0.1,0.7-0.4,1c-0.6,0.5-1.4,0.5-2,0c-0.3-0.3-0.4-0.6-0.4-1
	v-3.2c-0.8,1.4-2,2.7-3.4,3.5c-1.5,1-3.2,1.5-5,1.5c-1.9,0-3.8-0.5-5.5-1.6s-3-2.6-3.9-4.4c-1.9-3.9-1.9-8.5,0-12.4
	c0.9-1.8,2.2-3.3,3.9-4.3c1.6-1.1,3.5-1.6,5.4-1.6c1.8,0,3.5,0.5,5,1.3c1.4,0.8,2.6,2,3.5,3.5V7.4c0-0.4,0.1-0.7,0.4-1
	C105.4,5.8,106.2,5.8,106.8,6.4L106.8,6.4z M100.5,37.7c1.3-0.8,2.3-2,3-3.4c0.7-1.5,1.1-3.2,1.1-4.9c0-1.7-0.3-3.4-1.1-4.9
	c-0.7-1.4-1.7-2.6-3-3.4c-2.6-1.7-6-1.7-8.6,0c-1.3,0.9-2.3,2-3,3.4c-0.7,1.5-1.1,3.2-1.1,4.9c0,1.7,0.4,3.4,1.1,4.9
	c0.7,1.4,1.7,2.6,3,3.4C94.6,39.3,98,39.3,100.5,37.7L100.5,37.7z"/>
<path fill="#FF4200" d="M116.7,40.7c-0.6,0.5-1.4,0.5-2,0c-0.3-0.3-0.4-0.6-0.4-1V19.1c0-0.4,0.1-0.7,0.4-1c0.6-0.5,1.4-0.5,2,0
	c0.3,0.3,0.4,0.6,0.4,1v20.7C117.1,40.1,117,40.5,116.7,40.7z"/>
<path fill="#FF4200" d="M125.6,7.4c0.1-0.7-0.5-1.3-1.2-1.4l0,0c-0.1,0-0.2,0-0.2,0H115c-0.7-0.1-1.3,0.5-1.4,1.2l0,0
	c0,0.1,0,0.2,0,0.2c-0.1,0.7,0.5,1.3,1.2,1.4l0,0h8v7.8c0,0.8,0.6,1.4,1.4,1.4c0.8,0,1.4-0.6,1.4-1.4L125.6,7.4L125.6,7.4z"/>
<path fill="#1C1C1C" d="M145.4,29.1c-0.3,0.3-0.6,0.4-1,0.4h-17.2c0,1.7,0.4,3.4,1.1,4.9c0.7,1.4,1.8,2.6,3.2,3.4
	c1.5,0.8,3.2,1.3,4.9,1.2c1.4,0,2.7-0.3,3.9-0.9c1.1-0.6,2-1.3,2.8-2.3c0.3-0.3,0.6-0.4,1-0.4c0.6,0,1.2,0.5,1.2,1.2
	c0,0.4-0.2,0.7-0.5,1c-1,1.2-2.3,2.2-3.7,2.9c-1.4,0.7-3.1,1.1-4.7,1.1c-2.2,0-4.3-0.5-6.2-1.5c-1.8-1-3.2-2.4-4.2-4.2
	c-1-1.9-1.6-4.1-1.5-6.2c-0.1-2.3,0.4-4.5,1.4-6.5c0.9-1.8,2.3-3.2,4-4.3c1.6-1,3.4-1.5,5.2-1.5s3.6,0.4,5.1,1.3
	c1.6,0.9,3,2.1,3.9,3.7c1,1.8,1.6,3.8,1.6,5.8C145.8,28.5,145.7,28.8,145.4,29.1L145.4,29.1z M130.3,21.8c-1.6,1.3-2.6,3.2-2.9,5.2
	H143v-0.4c-0.1-1.3-0.6-2.5-1.4-3.6c-0.7-1-1.7-1.8-2.9-2.3c-1.1-0.5-2.3-0.8-3.5-0.8C133.4,20,131.7,20.6,130.3,21.8L130.3,21.8z"
	/>
<path fill="#1C1C1C" d="M168.3,19.8c1.4,1.9,2.1,4.2,2,6.6v13.4c0,0.4-0.1,0.7-0.4,1c-0.5,0.5-1.4,0.5-1.9,0c-0.3-0.3-0.4-0.6-0.4-1
	V26.5c0.1-1.7-0.4-3.4-1.5-4.8c-1.2-1.3-2.8-2-4.6-1.8c-2.6,0-5,1.3-6.5,3.3c-0.7,1-1.1,2.1-1.1,3.3v13.2c0.1,0.8-0.5,1.4-1.2,1.5
	c-0.8,0.1-1.4-0.5-1.5-1.2c0-0.1,0-0.1,0-0.2V19.4c0-0.7,0.5-1.4,1.3-1.4l0,0c0.8,0,1.4,0.5,1.4,1.3l0,0v2.6
	c0.9-1.4,2.1-2.5,3.5-3.2c1.4-0.8,3.1-1.3,4.7-1.3C164.9,17.3,167,18.2,168.3,19.8z"/>
<path fill="#1C1C1C" d="M182.1,20.6v15.2c-0.1,0.8,0.1,1.7,0.6,2.3c0.4,0.4,0.9,0.6,1.4,0.6c0.2,0,0.5,0,0.7-0.1s0.4-0.1,0.6-0.1
	c0.3,0,0.5,0.1,0.7,0.3c0.2,0.2,0.3,0.5,0.3,0.8c0,0.5-0.3,0.9-0.7,1.1c-0.5,0.3-1.2,0.4-1.8,0.4c-0.7,0-1.3-0.1-1.9-0.2
	c-0.8-0.2-1.4-0.7-1.9-1.4c-0.7-1.1-1-2.3-0.9-3.6V20.6h-3.4c-0.4,0-0.7-0.1-1-0.4c-0.5-0.5-0.5-1.2-0.1-1.7l0,0l0.1-0.1
	c0.3-0.2,0.6-0.4,1-0.4h3.4v-5c0-0.4,0.1-0.7,0.4-1c0.6-0.5,1.4-0.5,2,0c0.3,0.3,0.4,0.6,0.4,1v5h3.2c0.3,0,0.7,0.2,0.9,0.4
	c0.2,0.2,0.4,0.6,0.4,0.9s-0.1,0.7-0.4,0.9c-0.3,0.2-0.6,0.4-0.9,0.3L182.1,20.6z"/>
<rect fill="none" width="192" height="58"/>
</svg>
