<svg id="Layer_1" data-name="Layer 1" xmlns="http://www.w3.org/2000/svg" viewBox="0 0 610 100">
  <defs>
    <style>
      .cls-1 {
        fill: #9d1314;
      }
    </style>
  </defs>
  <title>c</title>
  <g>
    <path id="path68" class="cls-1" d="M59.44,21.87l-18.62,25,29,51.17Z"/>
    <path id="path70" class="cls-1" d="M112.22,49.07l-.41-.55L89.34,98.15h59.4Z"/>
    <path id="path72" class="cls-1" d="M75.62,98.15,90.16,19.4,75.71,0,61,19.72,75.49,98.15Z"/>
    <path id="path74" class="cls-1" d="M39.21,49.07,2.7,98.15H61.45L39.64,48.49Z"/>
    <path id="path76" class="cls-1" d="M82.88,98.15l27.47-51.59L91.81,21.63,82.55,98.15Z"/>
    <path id="path78" class="cls-1" d="M205.8,31.82h-5.34v29h4.71c5.56,0,9.74-.19,12.55-2.86s4.22-6.52,4.22-11.55a15.86,15.86,0,0,0-1.82-7.9,11.64,11.64,0,0,0-5.43-4.94,20.85,20.85,0,0,0-8.89-1.7m-1.59,32.91h-3.75v24a12,12,0,0,0,1.21,6.08,5.45,5.45,0,0,0,3,2.57,17.16,17.16,0,0,0,4.66.65v1.31H175.72v-1.4q5.63,0,7.22-2.52a12.28,12.28,0,0,0,1.61-6.7V38.62c0-3.43-.69-5.84-2.09-7.25s-3.64-2.12-6.74-2.12V27.86h38.54a33.31,33.31,0,0,1,12.85,2.28,18.64,18.64,0,0,1,8.45,6.46,16.35,16.35,0,0,1,2.9,9.57,15.78,15.78,0,0,1-6.82,13.36,24.23,24.23,0,0,1-7,3.35q5,3.15,9.72,11.15l8.53,14.49a36.22,36.22,0,0,0,4,5.79,9,9,0,0,0,6.29,3.61v1.4H231.07q-3.36-6.06-5.16-9.64-5.72-11.21-8.33-15.56a20.18,20.18,0,0,0-5.41-6.3c-1.86-1.3-5.09-3.09-8-3.09"/>
    <path id="path80" class="cls-1" d="M305.19,44.76l0,11.94-1.8-.12a22.48,22.48,0,0,0-1.72-4.74,7,7,0,0,0-2.81-3.08,9.73,9.73,0,0,0-5-1.07H281l.1,22.42h9.8c2.86,0,4.95-.58,6.25-1.75s3.43-2.21,3.65-4.51l1.67,0,.09,16.37h-2c-.4-2.43-2.86-5-4.42-5.82a11.75,11.75,0,0,0-5.58-1.23h-9.48L281,89.69c.07,6.4,3.46,7.34,8.58,7.34h3.64a15.8,15.8,0,0,0,5.93-1.37A8.19,8.19,0,0,0,303,92.57c1-1.46,1.13-3.52,1.95-6.19h1.62l0,13.24H261.15V98.53q4.69,0,6.06-2a8.72,8.72,0,0,0,1.38-5.13V52.92a9.79,9.79,0,0,0-1.26-5.12c-.83-1.38-2.75-2.08-5.78-2.08h-.4V44.64l44,.12Z"/>
    <path id="path82" class="cls-1" d="M369.94,61.83h-1.09c-1.47-3.87-5.13-9.89-8.55-12.3a20.33,20.33,0,0,0-12-3.63,16,16,0,0,0-8.84,2.28A15.45,15.45,0,0,0,334,54.24a28.06,28.06,0,0,0-2.73,8.18,55.44,55.44,0,0,0-.75,9.3q0,12.15,4.83,18.66a15.38,15.38,0,0,0,13,6.51q5.88,0,7.35-1.74A7.74,7.74,0,0,0,357.2,90V83.53a16.62,16.62,0,0,0-.31-3.42c-.19-1-.6-1.08-1.44-1.9s-3.81-1.28-5.53-1.39V75.64h26.62v1.18c-3.42.46-6.9,1.73-6.9,5.46V95.91A48.16,48.16,0,0,1,349.39,100a51.63,51.63,0,0,1-8.25-.62,34.29,34.29,0,0,1-6.58-1.75,25.55,25.55,0,0,1-4.86-2.43A27.53,27.53,0,0,1,326,92.26,28.31,28.31,0,0,1,321.7,87a27.63,27.63,0,0,1-3.08-6.89,29.53,29.53,0,0,1-1.2-8.64,28.69,28.69,0,0,1,2.27-11.58,26.79,26.79,0,0,1,6.38-9.09A28.75,28.75,0,0,1,335.54,45a31.46,31.46,0,0,1,11.26-2,26.84,26.84,0,0,1,5.93.74c1.5.34,4.16,1.84,8,3a13.37,13.37,0,0,0,3.93.6c1.49,0,3.67-2,4.16-3.89h1.09V61.83Z"/>
    <path id="path84" class="cls-1" d="M387.23,44.46V43.41h27.24v1.12q-4.55,0-5.85,2.07c-.89,1.38-1.33,1.54-1.33,3.8V91.11a15.88,15.88,0,0,0,.36,3.47,5,5,0,0,0,1.87,2.77,7.16,7.16,0,0,0,4.62,1.23h.33v1.13H387.23V98.58c3,0,4.94-.67,5.84-2a9.9,9.9,0,0,0,1.32-5.43V50.4c0-2.68-.57-3-1.74-4.16s-3-1.78-5.42-1.78"/>
    <path id="path86" class="cls-1" d="M441.36,69.68a74.07,74.07,0,0,0,.87,11.48,23.44,23.44,0,0,0,4.61,10.58C449.3,95,453,96.66,458,96.66q10.47,0,13.4-8.31a50.32,50.32,0,0,0,3-16.92,63.73,63.73,0,0,0-1.19-12.6,21.4,21.4,0,0,0-4.84-10c-2.43-2.79-5.86-4.18-10.32-4.18-5,0-8.73,1.59-11.18,4.77a22.38,22.38,0,0,0-4.59,10.12,62.5,62.5,0,0,0-.87,10.18m-13.74.74a30.62,30.62,0,0,1,2-11.15,26.77,26.77,0,0,1,15.5-15.6,37.14,37.14,0,0,1,25.46,0A27.73,27.73,0,0,1,480.14,50a27,27,0,0,1,5.92,9.36,31.49,31.49,0,0,1,2,11.29,32.15,32.15,0,0,1-1.95,11.19,27.6,27.6,0,0,1-5.73,9.29,26.46,26.46,0,0,1-9.5,6.36,34,34,0,0,1-13,2.34,32.74,32.74,0,0,1-13.6-2.63,26.5,26.5,0,0,1-9.48-6.94,28.69,28.69,0,0,1-5.45-9.51,31.77,31.77,0,0,1-1.78-10.34"/>
    <path id="path88" class="cls-1" d="M515.61,43.33l33.58,35.1V53c0-3.35-1.11-5.6-2.47-6.83s-2.42-1.39-5.21-1.8V43.23H560v1.09c-2.13.24-3.06.15-4.52,1.08A6.79,6.79,0,0,0,553,48.1a10.59,10.59,0,0,0-.78,4.74V99.33h-1.31l-41.3-44.49V87.21c0,2.62.13,5.57,1.25,7.42s4.71,2.18,7.72,2.42v1.1h-19.8v-1.1c5.57-.46,6.72-3.19,6.68-8.22V51.25c-2.32-3.15-3.11-6.56-6.75-6.75l-.08-1.17Z"/>
    <path id="path90" class="cls-1" d="M604.09,56.46h-1.54a17.45,17.45,0,0,0-5-8.33c-2.29-2-6.81-3-10.07-3a10.22,10.22,0,0,0-4.39.93,7.67,7.67,0,0,0-3.16,2.68,7,7,0,0,0-1.16,4,7.55,7.55,0,0,0,.45,2.56,9.83,9.83,0,0,0,2.18,3.1,28.31,28.31,0,0,0,5.28,4.06c2.64,1.61,4.24,2.62,4.83,3.05a105.13,105.13,0,0,1,9.68,6.14,14.55,14.55,0,0,1,4.44,5.13,14,14,0,0,1,1.67,6.86A14.47,14.47,0,0,1,605.89,90a13.45,13.45,0,0,1-3.45,5,19.08,19.08,0,0,1-6.15,3.3,24.76,24.76,0,0,1-7.76,1.16,37.22,37.22,0,0,1-9.94-1.59c-.42-.1-1-.22-1.61-.34a8,8,0,0,0-1.72-.2,2.8,2.8,0,0,0-2.67,1.92h-1.38l0-16.88h1c.5,3,1.84,7.44,3.6,9.36a15.5,15.5,0,0,0,6,3.86A15.29,15.29,0,0,0,588,96.88a11.26,11.26,0,0,0,7.26-2.65,7.25,7.25,0,0,0,2.86-5.79,6.65,6.65,0,0,0-1.2-4,13.88,13.88,0,0,0-3.59-3.38q-2.4-1.67-9-5.8a51.94,51.94,0,0,1-6-4.29A23.13,23.13,0,0,1,574.45,67a17.76,17.76,0,0,1-2.24-3.63,12.14,12.14,0,0,1-1-4,15,15,0,0,1,1.8-8.81,17.75,17.75,0,0,1,6.22-6.56c2.69-1.69,6.86-2.11,10.31-2.11a20.44,20.44,0,0,1,4.62.51,15.18,15.18,0,0,1,1.58.31l1.65.37a17.19,17.19,0,0,0,2.61.31,3.07,3.07,0,0,0,1.87-.43,4.11,4.11,0,0,0,1-1.22h1.22V56.46Z"/>
  </g>
</svg>
