<svg id="Layer_1" data-name="Layer 1" xmlns="http://www.w3.org/2000/svg" viewBox="0 0 486 100">
  <defs>
    <style>
      .cls-1 {
        fill: #9d1314;
      }
    </style>
  </defs>
  <title>c</title>
  <g id="Layer_2" data-name="Layer 2">
    <g id="logos">
      <path id="sanalm" class="cls-1" d="M48.44,28.28A16.55,16.55,0,1,1,31.88,44.83,16.54,16.54,0,0,1,48.44,28.28h0M42.29,68c-4.14-3.82-7.88-6.28-10.87-10.86A21.14,21.14,0,0,1,27.21,45,17.24,17.24,0,0,1,30.55,34.6c2.72-4.37,5.61-8.72,7.94-12.56h0c1.12-1.86,2.25-3.84,3.41-6,2.33-4.3,5.81-9.34,2.48-15.1V.84L44.1.45,43.89.14h0A.37.37,0,0,0,43.61,0a.44.44,0,0,0-.33.19h0a1.55,1.55,0,0,0-.19.24c-.26.4-11.67,16-35.87,48.58l-.13.1a4.65,4.65,0,0,0-.75,2.71v.1a5.9,5.9,0,0,0,1,3.4h0L20.58,76.81c1.22,2.31,1.6,6.6,1.66,10v7.24a6,6,0,0,0,2.94,5.14l.13.08a5.41,5.41,0,0,0,2.18.69H45.75V81.75a55,55,0,0,0-.38-8.7,9,9,0,0,0-3.06-5m9.16,5a55,55,0,0,0-.38,8.7V100H69.41a5.37,5.37,0,0,0,2.17-.69l.14-.08A6,6,0,0,0,74.63,94V86.79c0-3.44.43-7.72,1.66-10L89.52,55.27h0a5.93,5.93,0,0,0,1-3.34v-.08a4.74,4.74,0,0,0-.76-2.67L89.66,49C65.41,16.49,54.05.84,53.75.42L53.56.18h0A.43.43,0,0,0,53.23,0a.34.34,0,0,0-.3.13h0l-.2.31-.25.4V.91c-3.32,5.76.11,10.8,2.46,15.09,1.16,2.2,2.29,4.21,3.41,6h0c2.36,3.85,5.22,8.2,7.94,12.56A17.26,17.26,0,0,1,69.63,45a21.18,21.18,0,0,1-4.21,12.13c-2.93,4.59-6.73,7-10.87,10.86a9,9,0,0,0-3.08,5m273.07-62H308.68V90.79h15.86ZM182.6,61.26a18,18,0,0,0-5.16-5.82,27,27,0,0,0-7.27-3.65,70.91,70.91,0,0,0-8.3-2.3c-2.81-.6-5.61-1.19-8.42-1.76a50.65,50.65,0,0,1-7.27-2l-1-.38-.8-.35a14,14,0,0,1-1.53-.82,6.78,6.78,0,0,1,1.18-12,18.2,18.2,0,0,1,3.86-.9,35.58,35.58,0,0,1,3.86-.27,21.23,21.23,0,0,1,9.15,1.9q4,1.89,5.08,7.45h16.12a23.21,23.21,0,0,0-3.31-10,21.91,21.91,0,0,0-6.64-6.71A28.44,28.44,0,0,0,163.23,20a45.79,45.79,0,0,0-10.37-1.15,55.46,55.46,0,0,0-10,1,30.73,30.73,0,0,0-9.49,3.32,21.31,21.31,0,0,0-7,6.23A16,16,0,0,0,123.58,39a18.83,18.83,0,0,0,1.91,8.76,16.86,16.86,0,0,0,5.08,5.89,27,27,0,0,0,7.19,3.67,77.36,77.36,0,0,0,8.34,2.3c2.8.64,5.56,1.22,8.26,1.75a50.3,50.3,0,0,1,7.24,2,15.25,15.25,0,0,1,5.07,2.9h0A7.36,7.36,0,0,1,167,76.6l-.33.33a10.41,10.41,0,0,1-3.14,1.95,21.92,21.92,0,0,1-5.22,1.29,43,43,0,0,1-4.94.34,20.37,20.37,0,0,1-10.71-2.71q-4.4-2.72-5.11-9.49H122.11a24.13,24.13,0,0,0,2.51,10.78,22,22,0,0,0,6.51,7.59A28.68,28.68,0,0,0,141,91.21a47.72,47.72,0,0,0,12.25,1.42,51.41,51.41,0,0,0,11-1.22,33.59,33.59,0,0,0,10.12-3.93,22.47,22.47,0,0,0,7.4-7,18.72,18.72,0,0,0,2.8-10.57,17.43,17.43,0,0,0-2-8.67m119-15.72a18.65,18.65,0,0,0-3.3-7.48,15.44,15.44,0,0,0-6.43-4.8,26.94,26.94,0,0,0-10.44-1.72,21.89,21.89,0,0,0-6.81,1.08A21,21,0,0,0,265,39.3c-.25.34-.49.69-.73,1.05V33H248.44v57.8H264.3V60.56q0-8.82,2.9-12.63a8.45,8.45,0,0,1,.73-.84h0a10.85,10.85,0,0,1,4.82-3.19,10.51,10.51,0,0,1,13.09,6.74h0a27.31,27.31,0,0,1,.91,7.63V90.82h15.86V55.31a46.24,46.24,0,0,0-.94-9.82m174.52-2.94a16.39,16.39,0,0,0-4.36-6.41,17.1,17.1,0,0,0-6.69-3.58,30.73,30.73,0,0,0-8.42-1.12,18.61,18.61,0,0,0-10.44,2.9,24.63,24.63,0,0,0-7,6.7,14,14,0,0,0-6.88-7.48,23.24,23.24,0,0,0-10-2.12,20.39,20.39,0,0,0-10.11,2.46,22.25,22.25,0,0,0-6.86,6V33.05H389.49V90.81h15.86V57.29a16.43,16.43,0,0,1,1.22-6.86,11.1,11.1,0,0,1,3-4,10,10,0,0,1,3.58-1.89l1.08-.27a9.9,9.9,0,0,1,11.36,8.54v.54c.07,1.68.11,3.37.11,5.08v32.4h15.86V58.64a36.29,36.29,0,0,1,.39-5.31,14.26,14.26,0,0,1,.83-3.14,9.83,9.83,0,0,1,18.84,2v.42c.14,1.71.22,3.53.22,5.47V90.81h15.86V52.15a26.13,26.13,0,0,0-1.56-9.55M226.28,62.54a7.23,7.23,0,0,1-2.51,1.4,28.23,28.23,0,0,1-3.25.85c-1.15.22-2.37.38-3.63.56a75.85,75.85,0,0,0-7.75,1.54l-.46.14h0a7.51,7.51,0,0,0-4.76,5.1s-.18.81-.22,1.13a.89.89,0,0,0,0,.23V75.3h0a7.23,7.23,0,0,0,.92,2.55,7.52,7.52,0,0,0,4,3.3,7.34,7.34,0,0,0,1.22.25,22.74,22.74,0,0,0,3.68.3,14.09,14.09,0,0,0,7.26-1.56,10.53,10.53,0,0,0,3.8-3.73,12.15,12.15,0,0,0,1.5-4.41,30.31,30.31,0,0,0,.28-3.56Zm1.81,28.25a21,21,0,0,1-.73-2.8,22.33,22.33,0,0,1-.39-2.81A20.63,20.63,0,0,1,218,90.65a38.82,38.82,0,0,1-10.38,1.56,30.61,30.61,0,0,1-7.13-.84A17,17,0,0,1,188.16,78.6a23.21,23.21,0,0,1-.27-3.53,22.21,22.21,0,0,1,.13-2.45,16.65,16.65,0,0,1,10.29-12.86s1.3-.52,2.05-.71a65.53,65.53,0,0,1,7.08-1.51q3.57-.55,7-.89a43.54,43.54,0,0,0,6.13-1c.45-.12.87-.24,1.27-.37A6.59,6.59,0,0,0,222.19,43h-.12a14.48,14.48,0,0,0-5.78-1,16.52,16.52,0,0,0-4.8.61h0a7.73,7.73,0,0,0-5,4.65h0a18.22,18.22,0,0,0-1,4.67H189.7v-.33h0a19.17,19.17,0,0,1,6.51-14.14l.16-.12.17-.13.17-.13h0a19.21,19.21,0,0,1,2-1.4,27.25,27.25,0,0,1,8.55-3.18,49.31,49.31,0,0,1,9.54-1,65,65,0,0,1,8.82.62,27.86,27.86,0,0,1,6.65,1.68,16.29,16.29,0,0,1,9.85,15V78a58.44,58.44,0,0,0,.45,7.48,13.44,13.44,0,0,0,1.56,5.36ZM367.64,62.55A7,7,0,0,1,365.13,64a26.28,26.28,0,0,1-3.25.84c-1.15.22-2.37.38-3.63.56a75.89,75.89,0,0,0-7.75,1.55l-.46.14h0a7.47,7.47,0,0,0-4.76,5.09s-.18.81-.22,1.14v1.47a5.23,5.23,0,0,0,0,.56h0a7.35,7.35,0,0,0,.92,2.56,7.46,7.46,0,0,0,4,3.29,7.25,7.25,0,0,0,1.08.3,21.65,21.65,0,0,0,3.68.29A14,14,0,0,0,362,80.2a10.4,10.4,0,0,0,3.8-3.74,12,12,0,0,0,1.5-4.4,28.61,28.61,0,0,0,.28-3.57Zm16.24,22.88a13.44,13.44,0,0,0,1.56,5.36h-16a22.59,22.59,0,0,1-.73-2.8,22.33,22.33,0,0,1-.39-2.81,20.63,20.63,0,0,1-8.94,5.47A39.15,39.15,0,0,1,349,92.21a30,30,0,0,1-7.13-.84A17,17,0,0,1,329.48,78.6a23.21,23.21,0,0,1-.27-3.53,22.21,22.21,0,0,1,.13-2.45,16.65,16.65,0,0,1,10.29-12.86s1.3-.52,2-.71a64.38,64.38,0,0,1,7.12-1.51c2.39-.37,4.72-.67,7-.89a43.91,43.91,0,0,0,6.14-1c.45-.12.87-.24,1.27-.37A6.59,6.59,0,0,0,363.55,43h-.12a14.48,14.48,0,0,0-5.78-1,16.52,16.52,0,0,0-4.8.61h0a7.69,7.69,0,0,0-5,4.65h0a17.82,17.82,0,0,0-1,4.67H331v-.33h0a19.17,19.17,0,0,1,6.54-14.21l.16-.12.16-.13.17-.13h0a20.44,20.44,0,0,1,2-1.4,27.25,27.25,0,0,1,8.55-3.18,47.82,47.82,0,0,1,9.55-1,65,65,0,0,1,8.82.62,27.94,27.94,0,0,1,6.66,1.74,16.36,16.36,0,0,1,9.83,15V78a58.44,58.44,0,0,0,.45,7.48"/>
    </g>
  </g>
</svg>
