<?xml version="1.0" encoding="utf-8"?>
<!-- Generator: Adobe Illustrator 24.1.2, SVG Export Plug-In . SVG Version: 6.00 Build 0)  -->
<svg version="1.1"
	 id="svg86" inkscape:version="1.1.1 (3bf5ae0d25, 2021-09-20)" sodipodi:docname="SER-Doxi-Logo_invers2.svg" xmlns:inkscape="http://www.inkscape.org/namespaces/inkscape" xmlns:sodipodi="http://sodipodi.sourceforge.net/DTD/sodipodi-0.dtd" xmlns:svg="http://www.w3.org/2000/svg"
	 xmlns="http://www.w3.org/2000/svg" xmlns:xlink="http://www.w3.org/1999/xlink" x="0px" y="0px" viewBox="0 0 1368 480"
	 style="enable-background:new 0 0 1368 480;" xml:space="preserve">
<style type="text/css">
	.st0{fill:url(#path25_1_);}
	.st1{fill:#FFFFFF;}
	.st2{fill:#020202;}
	.st3{display:none;}
	.st4{display:inline;}
	.st5{fill:#000D39;}
	.st6{fill:url(#path67_1_);}
</style>
<sodipodi:namedview  bordercolor="#666666" borderopacity="1.0" id="namedview88" inkscape:current-layer="svg86" inkscape:cx="701.71548" inkscape:cy="167.07512" inkscape:pagecheckerboard="0" inkscape:pageopacity="0" inkscape:pageshadow="2" inkscape:window-height="1017" inkscape:window-maximized="1" inkscape:window-width="1920" inkscape:window-x="-8" inkscape:window-y="1072" inkscape:zoom="0.58356985" pagecolor="#ffffff" showgrid="false">
	</sodipodi:namedview>
<g id="g10">
	<g id="g4">
		<path id="path2" d="M857.2,404V82.9h201.1v58.9H919.7v73.4h125.5v55.7H919.7v74.3h138.6V404L857.2,404z"/>
	</g>
	<path id="path6" d="M1284.6,262.4c31.1-14.4,52.7-45.8,52.7-82.2l0,0c0-54.1-44-98-98.3-98h-129.1V404h62.6V270.8h46.1l67.6,133.5
		h70.2L1284.6,262.4z M1272.9,179c0,19.8-16.1,35.9-35.9,35.9h-64.5v-74.8h61.5C1255.5,140.1,1272.9,157.5,1272.9,179L1272.9,179z"
		/>
	<path id="path8" d="M573.9,315.5l60.6-14.4c6,31.3,26.4,54.4,63.3,54.4c31.8,0,55.4-17.5,55.4-41.5c0-20.7-15.2-33.2-40.6-38.3
		l-43.3-9.2c-50.2-9.7-88.2-40.6-88.2-91.7c0-59,50.2-99.1,115.7-99.1c68.2,0,105.3,43.2,112.3,83.6l-59.3,14.3
		c-4.9-20.6-21.1-42.6-54.3-42.6c-29,0-50.2,16.6-50.2,39.6c0,18.4,12.9,32.3,37.8,37.3l50.8,12.1c49.8,9.7,81.5,39.5,81.5,88.4
		c0,59-49.3,103.7-118.9,103.7C630.1,412.2,584.1,375.8,573.9,315.5L573.9,315.5z"/>
</g>
<g id="g41">
	<g id="g27">
		
			<linearGradient id="path25_1_" gradientUnits="userSpaceOnUse" x1="242.205" y1="458.6327" x2="242.205" y2="145.659" gradientTransform="matrix(1 0 0 -1 0 528)">
			<stop  offset="5.327789e-09" style="stop-color:#0082CA"/>
			<stop  offset="0.1048" style="stop-color:#1079C5"/>
			<stop  offset="0.3083" style="stop-color:#3862B7"/>
			<stop  offset="0.5902" style="stop-color:#7A3DA1"/>
			<stop  offset="0.9365" style="stop-color:#D40A84"/>
			<stop  offset="1" style="stop-color:#E5007E"/>
		</linearGradient>
		<path id="path25" class="st0" d="M476.1,232.3c-0.1,3.4-0.2,6.8-0.4,10.2c-2.1,36.6-14.1,70.9-36.2,100.2
			c-18.5,24.5-42.8,44.3-69.9,58.5c-34.2,17.9-72.3,27.2-110.6,30.4c-11.7,1-23.4,1.4-35.2,1.4c-89.6-0.3-196.3-22.3-213.5-163.5
			C-5,143,61.4,72.9,153.8,61c54.5-7,135.3-12.5,214.1,4c34.1,7.2,66.7,23.5,86.2,53.3c16.9,26,20.4,55.8,21.7,86
			C476.1,213.7,476.3,223,476.1,232.3L476.1,232.3z"/>
	</g>
	<g id="g39">
		<g id="g37">
			<path id="path29" class="st1" d="M127.5,168.3c6.7-23.6,31.2-38.1,55.7-39.3c30.8-1.4,60.6,3.8,90,11.3
				c23.2,5.9,45.5,4.4,67.4-4.8c19.1-8,38.6-15.2,59.3-18.1c6.6-0.9,13.4-1.3,20.1-1c12,0.6,20.7,7.4,26,17.6
				c25.6,49.4,16.3,121.7,9.9,143.5c-6.1,20.8-17.9,39.9-32.1,56.1c-32.5,37.2-74.1,58.2-122.1,67.4c-31.7,6-63.1,5.3-93.7-4.9
				c-33.9-11.3-61.3-31.4-76.4-64.6c-5.6-12.4-7.9-26.4-10.3-40C119.2,279.2,112.2,222.1,127.5,168.3L127.5,168.3z M217.4,254.7
				c-4.5,4.2-8.5,8-12.6,11.8c-4,3.8-8.1,7.6-12,11.3c10.3,24.9,41.3,24.5,51.7-8.8c4.2-13.5,3.1-28.5-4.3-40.5
				c-7.6-12.3-18.6-17.5-29.4-14.1c-9.4,2.9-19.3,14.5-20.1,23.9C199.3,243.6,208.1,249,217.4,254.7L217.4,254.7z M372.7,249.5
				c2.6,3.7,4.6,7.6,7.6,10.6c6.1,6,15.9,5.6,22.1-0.3c2.5-2.4,4.8-5.3,6.5-8.3c6-10.5,6.7-22,5.1-33.7c-1.1-7.8-4-15-9.9-20.6
				c-5.3-5.1-12.2-6.1-18.2-2.5c-7.2,4.2-11,10.9-13.5,19l20.1,15.2C385.8,235.9,379.5,242.5,372.7,249.5L372.7,249.5z M352.1,292.2
				c-1.3-2.2-4.4-2.5-6.4-0.8c-1.3,1.1-2.5,2.3-3.7,3.5c-9.3,9.5-19.8,16.3-33.7,16.2c-8.3-0.1-15.6-3.4-22.5-7.5
				c-3.4-2-7.5-0.7-8.8,3c-1.6,4.6-0.1,7.5,5.2,10.8c26.3,16.1,53.3,4.4,69.1-17C353.5,297.5,353.8,295,352.1,292.2L352.1,292.2z"/>
			<path id="path31" class="st2" d="M217.4,254.7c-9.4-5.8-18.1-11.1-26.6-16.4c0.8-9.4,10.6-21,20.1-23.9
				c10.8-3.4,21.7,1.8,29.4,14.1c7.5,12.1,8.6,27,4.3,40.5c-10.4,33.3-41.4,33.7-51.7,8.8c3.9-3.7,7.9-7.5,12-11.3
				C208.9,262.8,212.9,259,217.4,254.7L217.4,254.7z"/>
			<path id="path33" class="st2" d="M372.7,249.5c6.7-7,13-13.6,19.7-20.6l-20.1-15.2c2.5-8.1,6.3-14.7,13.5-19
				c6.1-3.6,12.9-2.6,18.2,2.5c5.9,5.6,8.8,12.7,9.9,20.6c1.6,11.7,0.9,23.2-5.1,33.7c-1.7,3-3.9,5.9-6.5,8.3
				c-6.2,5.9-16,6.3-22.1,0.3C377.3,257.2,375.3,253.3,372.7,249.5L372.7,249.5z"/>
			<path id="path35" class="st2" d="M345.8,291.4c1.9-1.7,5-1.4,6.3,0.8c1.7,2.8,1.5,5.3-0.7,8.2c-15.8,21.4-42.9,33.2-69.1,17
				c-5.3-3.3-6.8-6.2-5.2-10.8c1.3-3.8,5.4-5,8.8-3c7,4.1,14.2,7.4,22.5,7.5c13.9,0.2,24.4-6.7,33.7-16.2
				C343.2,293.7,344.5,292.5,345.8,291.4z"/>
		</g>
	</g>
</g>
<g id="Ebene_1" class="st3">
	<g id="g52" class="st4">
		<g id="g46">
			<path id="path44" class="st5" d="M857.2,356V34.9h201.1v58.9H919.7v73.4h125.5v55.7H919.7v74.3h138.6V356L857.2,356z"/>
		</g>
		<path id="path48" class="st5" d="M1284.6,214.4c31.1-14.4,52.7-45.8,52.7-82.2l0,0c0-54.1-44-98-98.3-98h-129.1V356h62.6V222.8
			h46.1l67.6,133.5h70.2L1284.6,214.4z M1272.9,131c0,19.8-16.1,35.9-35.9,35.9h-64.5V92.1h61.5
			C1255.5,92.1,1272.9,109.5,1272.9,131L1272.9,131z"/>
		<path id="path50" class="st5" d="M573.9,267.5l60.6-14.4c6,31.3,26.4,54.4,63.3,54.4c31.8,0,55.4-17.5,55.4-41.5
			c0-20.7-15.2-33.2-40.6-38.3l-43.3-9.2c-50.2-9.7-88.2-40.6-88.2-91.7c0-59,50.2-99.1,115.7-99.1c68.2,0,105.3,43.2,112.3,83.6
			l-59.3,14.3C744.9,105,728.7,83,695.5,83c-29,0-50.2,16.6-50.2,39.6c0,18.4,12.9,32.3,37.8,37.3l50.8,12.1
			c49.8,9.7,81.5,39.5,81.5,88.4c0,59-49.3,103.7-118.9,103.7C630.1,364.2,584.1,327.8,573.9,267.5L573.9,267.5z"/>
	</g>
	<g id="g83" class="st4">
		<g id="g69">
			
				<linearGradient id="path67_1_" gradientUnits="userSpaceOnUse" x1="242.205" y1="458.6327" x2="242.205" y2="145.659" gradientTransform="matrix(1 0 0 -1 0 480)">
				<stop  offset="5.327789e-09" style="stop-color:#0082CA"/>
				<stop  offset="0.1048" style="stop-color:#1079C5"/>
				<stop  offset="0.3083" style="stop-color:#3862B7"/>
				<stop  offset="0.5902" style="stop-color:#7A3DA1"/>
				<stop  offset="0.9365" style="stop-color:#D40A84"/>
				<stop  offset="1" style="stop-color:#E5007E"/>
			</linearGradient>
			<path id="path67" class="st6" d="M476.1,184.3c-0.1,3.4-0.2,6.8-0.4,10.2c-2.1,36.6-14.1,70.9-36.2,100.2
				c-18.5,24.5-42.8,44.3-69.9,58.5c-34.2,17.9-72.3,27.2-110.6,30.4c-11.7,1-23.4,1.4-35.2,1.4c-89.6-0.3-196.3-22.3-213.5-163.5
				C-5,95,61.4,24.9,153.8,13c54.5-7,135.3-12.5,214.1,4c34.1,7.2,66.7,23.5,86.2,53.3c16.9,26,20.4,55.8,21.7,86
				C476.1,165.7,476.3,175,476.1,184.3L476.1,184.3z"/>
		</g>
		<g id="g81">
			<g id="g79">
				<path id="path71" class="st1" d="M127.5,120.3c6.7-23.6,31.2-38.1,55.7-39.3c30.8-1.4,60.6,3.8,90,11.3
					c23.2,5.9,45.5,4.4,67.4-4.8c19.1-8,38.6-15.2,59.3-18.1c6.6-0.9,13.4-1.3,20.1-1c12,0.6,20.7,7.4,26,17.6
					c25.6,49.4,16.3,121.7,9.9,143.5c-6.1,20.8-17.9,39.9-32.1,56.1c-32.5,37.2-74.1,58.2-122.1,67.4c-31.7,6-63.1,5.3-93.7-4.9
					c-33.9-11.3-61.3-31.4-76.4-64.6c-5.6-12.4-7.9-26.4-10.3-40C119.2,231.2,112.2,174.1,127.5,120.3L127.5,120.3z M217.4,206.7
					c-4.5,4.2-8.5,8-12.6,11.8c-4,3.8-8.1,7.6-12,11.3c10.3,24.9,41.3,24.5,51.7-8.8c4.2-13.5,3.1-28.5-4.3-40.5
					c-7.6-12.3-18.6-17.5-29.4-14.1c-9.4,2.9-19.3,14.5-20.1,23.9C199.3,195.6,208.1,201,217.4,206.7L217.4,206.7z M372.7,201.5
					c2.6,3.7,4.6,7.6,7.6,10.6c6.1,6,15.9,5.6,22.1-0.3c2.5-2.4,4.8-5.3,6.5-8.3c6-10.5,6.7-22,5.1-33.7c-1.1-7.8-4-15-9.9-20.6
					c-5.3-5.1-12.2-6.1-18.2-2.5c-7.2,4.2-11,10.9-13.5,19l20.1,15.2C385.8,187.9,379.5,194.5,372.7,201.5L372.7,201.5z
					 M352.1,244.2c-1.3-2.2-4.4-2.5-6.4-0.8c-1.3,1.1-2.5,2.3-3.7,3.5c-9.3,9.5-19.8,16.3-33.7,16.2c-8.3-0.1-15.6-3.4-22.5-7.5
					c-3.4-2-7.5-0.7-8.8,3c-1.6,4.6-0.1,7.5,5.2,10.8c26.3,16.1,53.3,4.4,69.1-17C353.5,249.5,353.8,247,352.1,244.2L352.1,244.2z"
					/>
				<path id="path73" class="st2" d="M217.4,206.7c-9.4-5.8-18.1-11.1-26.6-16.4c0.8-9.4,10.6-21,20.1-23.9
					c10.8-3.4,21.7,1.8,29.4,14.1c7.5,12.1,8.6,27,4.3,40.5c-10.4,33.3-41.4,33.7-51.7,8.8c3.9-3.7,7.9-7.5,12-11.3
					C208.9,214.8,212.9,211,217.4,206.7L217.4,206.7z"/>
				<path id="path75" class="st2" d="M372.7,201.5c6.7-7,13-13.6,19.7-20.6l-20.1-15.2c2.5-8.1,6.3-14.7,13.5-19
					c6.1-3.6,12.9-2.6,18.2,2.5c5.9,5.6,8.8,12.7,9.9,20.6c1.6,11.7,0.9,23.2-5.1,33.7c-1.7,3-3.9,5.9-6.5,8.3
					c-6.2,5.9-16,6.3-22.1,0.3C377.3,209.2,375.3,205.3,372.7,201.5L372.7,201.5z"/>
				<path id="path77" class="st2" d="M345.8,243.4c1.9-1.7,5-1.4,6.3,0.8c1.7,2.8,1.5,5.3-0.7,8.2c-15.8,21.4-42.9,33.2-69.1,17
					c-5.3-3.3-6.8-6.2-5.2-10.8c1.3-3.8,5.4-5,8.8-3c7,4.1,14.2,7.4,22.5,7.5c13.9,0.2,24.4-6.7,33.7-16.2
					C343.2,245.7,344.5,244.5,345.8,243.4z"/>
			</g>
		</g>
	</g>
</g>
</svg>
